%TF.GenerationSoftware,KiCad,Pcbnew,10.0.0*%
%TF.CreationDate,2026-04-06T12:17:37+02:00*%
%TF.ProjectId,m47BoardV0,6d343742-6f61-4726-9456-302e6b696361,rev?*%
%TF.SameCoordinates,Original*%
%TF.FileFunction,Soldermask,Bot*%
%TF.FilePolarity,Negative*%
%FSLAX46Y46*%
G04 Gerber Fmt 4.6, Leading zero omitted, Abs format (unit mm)*
G04 Created by KiCad (PCBNEW 10.0.0) date 2026-04-06 12:17:37*
%MOMM*%
%LPD*%
G01*
G04 APERTURE LIST*
%ADD10R,1.700000X1.700000*%
%ADD11C,1.700000*%
G04 APERTURE END LIST*
D10*
%TO.C,J2*%
X16200000Y-20770000D03*
D11*
X16200000Y-23310000D03*
X16200000Y-25850000D03*
X16200000Y-28390000D03*
X16200000Y-30930000D03*
X16200000Y-33470000D03*
X16200000Y-36010000D03*
X16200000Y-38550000D03*
X16200000Y-41090000D03*
X16200000Y-43630000D03*
%TD*%
D10*
%TO.C,J3*%
X20200000Y-20770000D03*
D11*
X20200000Y-23310000D03*
X20200000Y-25850000D03*
X20200000Y-28390000D03*
X20200000Y-30930000D03*
X20200000Y-33470000D03*
X20200000Y-36010000D03*
X20200000Y-38550000D03*
X20200000Y-41090000D03*
X20200000Y-43630000D03*
%TD*%
D10*
%TO.C,J1*%
X26360000Y-16800000D03*
D11*
X23820000Y-16800000D03*
X21280000Y-16800000D03*
X18740000Y-16800000D03*
X16200000Y-16800000D03*
%TD*%
D10*
%TO.C,J5*%
X52200000Y-20770000D03*
D11*
X52200000Y-23310000D03*
X52200000Y-25850000D03*
X52200000Y-28390000D03*
X52200000Y-30930000D03*
X52200000Y-33470000D03*
X52200000Y-36010000D03*
X52200000Y-38550000D03*
X52200000Y-41090000D03*
X52200000Y-43630000D03*
%TD*%
D10*
%TO.C,J6*%
X49650000Y-16800000D03*
D11*
X52190000Y-16800000D03*
%TD*%
D10*
%TO.C,J4*%
X48200000Y-20770000D03*
D11*
X48200000Y-23310000D03*
X48200000Y-25850000D03*
X48200000Y-28390000D03*
X48200000Y-30930000D03*
X48200000Y-33470000D03*
X48200000Y-36010000D03*
X48200000Y-38550000D03*
X48200000Y-41090000D03*
X48200000Y-43630000D03*
%TD*%
M02*
