M48
; DRILL file KiCad 10.0.0 date 2026-04-06T12:18:56
; FORMAT={-:-/ absolute / metric / decimal}
; #@! TF.CreationDate,2026-04-06T12:18:56+02:00
; #@! TF.GenerationSoftware,Kicad,Pcbnew,10.0.0
; #@! TF.FileFunction,Plated,1,2,PTH
FMAT,2
METRIC
; #@! TA.AperFunction,Plated,PTH,ViaDrill
T1C0.300
; #@! TA.AperFunction,Plated,PTH,ComponentDrill
T2C1.000
%
G90
G05
T1
X15.2Y-18.4
X15.386Y-48.75
X15.386Y-54.7
X17.5Y-18.4
X21.45Y-51.8
X22.186Y-53.55
X23.5Y-51.8
X24.05Y-48.6
X24.8Y-30.55
X26.15Y-22.4
X26.15Y-28.7
X26.38Y-44.25
X26.65Y-56.6
X26.95Y-48.2
X27.05Y-23.2
X27.05Y-29.6
X27.16Y-44.85
X28.0Y-24.0
X28.0Y-30.4
X28.6Y-35.1
X28.7Y-16.85
X29.1Y-21.25
X29.55Y-55.35
X29.741Y-44.25
X30.65Y-56.6
X31.2Y-47.2
X31.72Y-19.817
X31.72Y-22.782
X31.9Y-27.75
X32.54Y-44.85
X33.1Y-38.1
X33.4Y-21.3
X33.4Y-47.2
X34.45Y-41.95
X34.9Y-39.9
X37.05Y-19.65
X37.35Y-48.4
X37.4Y-27.8
X37.8Y-19.65
X37.8Y-21.3
X38.55Y-19.65
X39.125Y-56.6
X39.8Y-35.15
X39.85Y-45.692
X39.9Y-28.1
X39.9Y-33.1
X40.25Y-56.6
X41.1Y-48.95
X41.3Y-56.6
X41.7Y-17.77
X42.2Y-31.25
X42.55Y-21.4
X44.3Y-47.0
X45.25Y-18.9
X46.35Y-56.45
X46.775Y-39.975
X46.775Y-45.675
X51.2Y-18.55
X52.886Y-48.75
X52.886Y-54.7
X53.4Y-18.55
T2
X16.2Y-16.8
X16.2Y-20.77
X16.2Y-23.31
X16.2Y-25.85
X16.2Y-28.39
X16.2Y-30.93
X16.2Y-33.47
X16.2Y-36.01
X16.2Y-38.55
X16.2Y-41.09
X16.2Y-43.63
X18.74Y-16.8
X20.2Y-20.77
X20.2Y-23.31
X20.2Y-25.85
X20.2Y-28.39
X20.2Y-30.93
X20.2Y-33.47
X20.2Y-36.01
X20.2Y-38.55
X20.2Y-41.09
X20.2Y-43.63
X21.28Y-16.8
X23.82Y-16.8
X26.36Y-16.8
X48.2Y-20.77
X48.2Y-23.31
X48.2Y-25.85
X48.2Y-28.39
X48.2Y-30.93
X48.2Y-33.47
X48.2Y-36.01
X48.2Y-38.55
X48.2Y-41.09
X48.2Y-43.63
X49.65Y-16.8
X52.19Y-16.8
X52.2Y-20.77
X52.2Y-23.31
X52.2Y-25.85
X52.2Y-28.39
X52.2Y-30.93
X52.2Y-33.47
X52.2Y-36.01
X52.2Y-38.55
X52.2Y-41.09
X52.2Y-43.63
M30
