%TF.GenerationSoftware,KiCad,Pcbnew,10.0.0*%
%TF.CreationDate,2026-04-06T12:17:37+02:00*%
%TF.ProjectId,m47BoardV0,6d343742-6f61-4726-9456-302e6b696361,rev?*%
%TF.SameCoordinates,Original*%
%TF.FileFunction,Copper,L2,Bot*%
%TF.FilePolarity,Positive*%
%FSLAX46Y46*%
G04 Gerber Fmt 4.6, Leading zero omitted, Abs format (unit mm)*
G04 Created by KiCad (PCBNEW 10.0.0) date 2026-04-06 12:17:37*
%MOMM*%
%LPD*%
G01*
G04 APERTURE LIST*
%TA.AperFunction,ComponentPad*%
%ADD10R,1.700000X1.700000*%
%TD*%
%TA.AperFunction,ComponentPad*%
%ADD11C,1.700000*%
%TD*%
%TA.AperFunction,ViaPad*%
%ADD12C,0.600000*%
%TD*%
%TA.AperFunction,Conductor*%
%ADD13C,0.200000*%
%TD*%
%TA.AperFunction,Conductor*%
%ADD14C,0.400000*%
%TD*%
G04 APERTURE END LIST*
D10*
%TO.P,J2,1,Pin_1_1*%
%TO.N,/PC6*%
X16200000Y-20770000D03*
D11*
%TO.P,J2,2,Pin_2_2*%
%TO.N,/PA10*%
X16200000Y-23310000D03*
%TO.P,J2,3,Pin_3_3*%
%TO.N,/PA12*%
X16200000Y-25850000D03*
%TO.P,J2,4,Pin_4_4*%
%TO.N,/PD0*%
X16200000Y-28390000D03*
%TO.P,J2,5,Pin_5_5*%
%TO.N,/PD2*%
X16200000Y-30930000D03*
%TO.P,J2,6,Pin_6_6*%
%TO.N,/PB3*%
X16200000Y-33470000D03*
%TO.P,J2,7,Pin_7_7*%
%TO.N,/PB5*%
X16200000Y-36010000D03*
%TO.P,J2,8,Pin_8_8*%
%TO.N,/PB7*%
X16200000Y-38550000D03*
%TO.P,J2,9,Pin_9_9*%
%TO.N,/PB9*%
X16200000Y-41090000D03*
%TO.P,J2,10,Pin_10_10*%
%TO.N,/PF3*%
X16200000Y-43630000D03*
%TD*%
D10*
%TO.P,J3,1,Pin_1_1*%
%TO.N,/PA9*%
X20200000Y-20770000D03*
D11*
%TO.P,J3,2,Pin_2_2*%
%TO.N,/PC7*%
X20200000Y-23310000D03*
%TO.P,J3,3,Pin_3_3*%
%TO.N,/PA11*%
X20200000Y-25850000D03*
%TO.P,J3,4,Pin_4_4*%
%TO.N,/PA15*%
X20200000Y-28390000D03*
%TO.P,J3,5,Pin_5_5*%
%TO.N,/PD1*%
X20200000Y-30930000D03*
%TO.P,J3,6,Pin_6_6*%
%TO.N,/PD3*%
X20200000Y-33470000D03*
%TO.P,J3,7,Pin_7_7*%
%TO.N,/PB4*%
X20200000Y-36010000D03*
%TO.P,J3,8,Pin_8_8*%
%TO.N,/PB6*%
X20200000Y-38550000D03*
%TO.P,J3,9,Pin_9_9*%
%TO.N,/PB8*%
X20200000Y-41090000D03*
%TO.P,J3,10,Pin_10_10*%
%TO.N,/PC13*%
X20200000Y-43630000D03*
%TD*%
D10*
%TO.P,J1,1,Pin_1_1*%
%TO.N,/SWDIO*%
X26360000Y-16800000D03*
D11*
%TO.P,J1,2,Pin_2_2*%
%TO.N,/SWCLK*%
X23820000Y-16800000D03*
%TO.P,J1,3,Pin_3_3*%
%TO.N,/NRST*%
X21280000Y-16800000D03*
%TO.P,J1,4,Pin_4_4*%
%TO.N,+3V3*%
X18740000Y-16800000D03*
%TO.P,J1,5,Pin_5_5*%
%TO.N,GND*%
X16200000Y-16800000D03*
%TD*%
D10*
%TO.P,J5,1,Pin_1_1*%
%TO.N,GND*%
X52200000Y-20770000D03*
D11*
%TO.P,J5,2,Pin_2_2*%
%TO.N,/PB15*%
X52200000Y-23310000D03*
%TO.P,J5,3,Pin_3_3*%
%TO.N,/PB13*%
X52200000Y-25850000D03*
%TO.P,J5,4,Pin_4_4*%
%TO.N,/PB11*%
X52200000Y-28390000D03*
%TO.P,J5,5,Pin_5_5*%
%TO.N,/PB2*%
X52200000Y-30930000D03*
%TO.P,J5,6,Pin_6_6*%
%TO.N,/PB0*%
X52200000Y-33470000D03*
%TO.P,J5,7,Pin_7_7*%
%TO.N,/PA6*%
X52200000Y-36010000D03*
%TO.P,J5,8,Pin_8_8*%
%TO.N,/PA4*%
X52200000Y-38550000D03*
%TO.P,J5,9,Pin_9_9*%
%TO.N,/PA2*%
X52200000Y-41090000D03*
%TO.P,J5,10,Pin_10_10*%
%TO.N,/PA0*%
X52200000Y-43630000D03*
%TD*%
D10*
%TO.P,J6,1,Pin_1_1*%
%TO.N,+5V*%
X49650000Y-16800000D03*
D11*
%TO.P,J6,2,Pin_2_2*%
%TO.N,GND*%
X52190000Y-16800000D03*
%TD*%
D10*
%TO.P,J4,1,Pin_1_1*%
%TO.N,+3V3*%
X48200000Y-20770000D03*
D11*
%TO.P,J4,2,Pin_2_2*%
%TO.N,/PA8*%
X48200000Y-23310000D03*
%TO.P,J4,3,Pin_3_3*%
%TO.N,/PB14*%
X48200000Y-25850000D03*
%TO.P,J4,4,Pin_4_4*%
%TO.N,/PB12*%
X48200000Y-28390000D03*
%TO.P,J4,5,Pin_5_5*%
%TO.N,/PB10*%
X48200000Y-30930000D03*
%TO.P,J4,6,Pin_6_6*%
%TO.N,/PB1*%
X48200000Y-33470000D03*
%TO.P,J4,7,Pin_7_7*%
%TO.N,/PA7*%
X48200000Y-36010000D03*
%TO.P,J4,8,Pin_8_8*%
%TO.N,/PA5*%
X48200000Y-38550000D03*
%TO.P,J4,9,Pin_9_9*%
%TO.N,/PA3*%
X48200000Y-41090000D03*
%TO.P,J4,10,Pin_10_10*%
%TO.N,/PA1*%
X48200000Y-43630000D03*
%TD*%
D12*
%TO.N,GND*%
X15200000Y-18400000D03*
X53400000Y-18550000D03*
X51200000Y-18550000D03*
%TO.N,/PF3*%
X27160000Y-44850000D03*
X32540000Y-44850000D03*
%TO.N,GND*%
X37400000Y-27800000D03*
X31200000Y-47200000D03*
X24800000Y-30550000D03*
X45250000Y-18900000D03*
X17500000Y-18400000D03*
X29100000Y-21250000D03*
X31720000Y-19817500D03*
X42550000Y-21400000D03*
X30650000Y-56600000D03*
X41300000Y-56600000D03*
X44300000Y-47000000D03*
X24050000Y-48600000D03*
X29550000Y-55350000D03*
X41100000Y-48950000D03*
X37350000Y-48400000D03*
X38550000Y-19650000D03*
X42200000Y-31250000D03*
X28600000Y-35100000D03*
X37800000Y-19650000D03*
X39125000Y-56600000D03*
X28700000Y-16850000D03*
X37050000Y-19650000D03*
X26650000Y-56600000D03*
X22186248Y-53550000D03*
X46350000Y-56450000D03*
X41700000Y-17770000D03*
X37800000Y-21300000D03*
X31720000Y-22782500D03*
X23500000Y-51800000D03*
X33400000Y-47200000D03*
X34450000Y-41950000D03*
X31900000Y-27750000D03*
X21450000Y-51800000D03*
X40250000Y-56600000D03*
X26950000Y-48200000D03*
X15386248Y-48750000D03*
X33400000Y-21300000D03*
X52886248Y-54700000D03*
X39850000Y-45692500D03*
X39800000Y-35150000D03*
X15386248Y-54700000D03*
X52886248Y-48750000D03*
%TO.N,/NRST*%
X26150000Y-22400000D03*
X33100000Y-38100000D03*
X34900000Y-39900000D03*
X26150000Y-28700000D03*
%TO.N,/PC13*%
X29741119Y-44250001D03*
X26380000Y-44250000D03*
%TO.N,+3V3*%
X39900000Y-28100000D03*
X39900000Y-33100000D03*
%TO.N,/PA5*%
X46775000Y-39975000D03*
X46775000Y-45675000D03*
%TO.N,/SWDIO*%
X28000000Y-24000000D03*
X28000000Y-30400000D03*
%TO.N,/SWCLK*%
X27050000Y-29600000D03*
X27050000Y-23200000D03*
%TD*%
%TO.N,/PF3*%
D13*
X27160000Y-44850000D02*
X32540000Y-44850000D01*
%TO.N,/NRST*%
X33100000Y-38100000D02*
X34900000Y-39900000D01*
X26150000Y-22400000D02*
X26150000Y-28700000D01*
%TO.N,/PC13*%
X26380000Y-44250000D02*
X26380001Y-44250001D01*
X29741119Y-44250001D02*
X26380001Y-44250001D01*
%TO.N,+3V3*%
D14*
X39900000Y-28100000D02*
X39900000Y-33100000D01*
%TO.N,/PA5*%
D13*
X46775000Y-39975000D02*
X46775000Y-45675000D01*
%TO.N,/SWDIO*%
X28000000Y-24000000D02*
X28000000Y-30400000D01*
%TO.N,/SWCLK*%
X27050000Y-23200000D02*
X27050000Y-29600000D01*
%TD*%
%TA.AperFunction,Conductor*%
%TO.N,GND*%
G36*
X53892606Y-15005523D02*
G01*
X53907604Y-15009927D01*
X53966355Y-15047672D01*
X53967542Y-15049041D01*
X53987407Y-15092504D01*
X53990863Y-15091408D01*
X53993695Y-15100335D01*
X53995082Y-15109294D01*
X53996587Y-15112587D01*
X53996108Y-15115923D01*
X53999500Y-15137831D01*
X53999500Y-31276000D01*
X53979815Y-31343039D01*
X53927011Y-31388794D01*
X53875500Y-31400000D01*
X53637625Y-31400000D01*
X53570586Y-31380315D01*
X53524831Y-31327511D01*
X53514887Y-31258353D01*
X53517053Y-31247047D01*
X53517246Y-31246242D01*
X53517247Y-31246239D01*
X53550500Y-31036287D01*
X53550500Y-30823713D01*
X53517246Y-30613757D01*
X53451557Y-30411588D01*
X53355051Y-30222184D01*
X53355049Y-30222181D01*
X53355048Y-30222179D01*
X53354702Y-30221703D01*
X53354700Y-30221699D01*
X53230112Y-30050216D01*
X53079782Y-29899886D01*
X52907824Y-29774953D01*
X52907258Y-29774606D01*
X52905627Y-29773357D01*
X52903901Y-29772103D01*
X52903932Y-29772059D01*
X52886960Y-29759062D01*
X52876683Y-29749357D01*
X52841457Y-29689017D01*
X52844445Y-29619212D01*
X52880612Y-29565495D01*
X52887783Y-29559281D01*
X52904194Y-29547269D01*
X52907792Y-29545063D01*
X52907816Y-29545051D01*
X52969136Y-29500500D01*
X52976196Y-29495371D01*
X52990595Y-29484908D01*
X53079786Y-29420109D01*
X53079788Y-29420106D01*
X53079792Y-29420104D01*
X53079796Y-29420099D01*
X53079848Y-29420062D01*
X53080592Y-29419303D01*
X53230104Y-29269792D01*
X53230106Y-29269788D01*
X53230109Y-29269786D01*
X53355048Y-29097820D01*
X53355047Y-29097820D01*
X53355051Y-29097816D01*
X53355053Y-29097810D01*
X53375445Y-29069744D01*
X53383730Y-29041529D01*
X53451557Y-28908412D01*
X53517246Y-28706243D01*
X53550500Y-28496287D01*
X53550500Y-28283713D01*
X53517246Y-28073757D01*
X53451557Y-27871588D01*
X53355051Y-27682184D01*
X53355049Y-27682181D01*
X53355048Y-27682179D01*
X53354702Y-27681703D01*
X53354700Y-27681699D01*
X53230112Y-27510216D01*
X53079782Y-27359886D01*
X52907824Y-27234953D01*
X52907258Y-27234606D01*
X52905627Y-27233357D01*
X52903901Y-27232103D01*
X52903932Y-27232059D01*
X52886960Y-27219062D01*
X52876683Y-27209357D01*
X52841457Y-27149017D01*
X52844445Y-27079212D01*
X52880613Y-27025493D01*
X52887783Y-27019281D01*
X52904187Y-27007275D01*
X52907816Y-27005051D01*
X52907817Y-27005050D01*
X52929789Y-26989086D01*
X53079786Y-26880109D01*
X53079787Y-26880106D01*
X53079790Y-26880105D01*
X53079792Y-26880104D01*
X53079793Y-26880102D01*
X53079847Y-26880063D01*
X53080605Y-26879290D01*
X53230104Y-26729792D01*
X53230106Y-26729788D01*
X53230109Y-26729786D01*
X53355048Y-26557820D01*
X53355047Y-26557820D01*
X53355051Y-26557816D01*
X53355053Y-26557810D01*
X53375445Y-26529744D01*
X53383730Y-26501529D01*
X53451557Y-26368412D01*
X53517246Y-26166243D01*
X53550500Y-25956287D01*
X53550500Y-25743713D01*
X53517246Y-25533757D01*
X53451557Y-25331588D01*
X53355051Y-25142184D01*
X53355049Y-25142181D01*
X53355048Y-25142179D01*
X53354702Y-25141703D01*
X53354700Y-25141699D01*
X53230112Y-24970216D01*
X53079782Y-24819886D01*
X52907824Y-24694953D01*
X52907258Y-24694606D01*
X52905627Y-24693357D01*
X52903901Y-24692103D01*
X52903932Y-24692059D01*
X52886960Y-24679062D01*
X52876683Y-24669357D01*
X52841457Y-24609017D01*
X52844445Y-24539212D01*
X52880613Y-24485493D01*
X52887783Y-24479281D01*
X52904187Y-24467275D01*
X52907816Y-24465051D01*
X52907817Y-24465050D01*
X52929789Y-24449086D01*
X53079786Y-24340109D01*
X53079787Y-24340106D01*
X53079790Y-24340105D01*
X53079792Y-24340104D01*
X53079793Y-24340102D01*
X53079847Y-24340063D01*
X53080605Y-24339290D01*
X53230104Y-24189792D01*
X53230106Y-24189788D01*
X53230109Y-24189786D01*
X53355048Y-24017820D01*
X53355047Y-24017820D01*
X53355051Y-24017816D01*
X53355053Y-24017810D01*
X53375445Y-23989744D01*
X53383730Y-23961529D01*
X53451557Y-23828412D01*
X53517246Y-23626243D01*
X53550500Y-23416287D01*
X53550500Y-23203713D01*
X53517246Y-22993757D01*
X53451557Y-22791588D01*
X53355051Y-22602184D01*
X53355049Y-22602181D01*
X53355048Y-22602179D01*
X53354702Y-22601703D01*
X53354700Y-22601699D01*
X53230112Y-22430216D01*
X53128788Y-22328892D01*
X53107639Y-22300642D01*
X53100984Y-22288454D01*
X53086133Y-22220184D01*
X53110547Y-22154723D01*
X53113315Y-22151025D01*
X53169233Y-22109175D01*
X53292086Y-22063354D01*
X53292093Y-22063350D01*
X53407187Y-21977190D01*
X53407190Y-21977187D01*
X53493350Y-21862093D01*
X53493354Y-21862086D01*
X53543596Y-21727379D01*
X53543598Y-21727372D01*
X53547552Y-21690602D01*
X53549998Y-21667860D01*
X53550000Y-21667827D01*
X53550000Y-21020000D01*
X52812250Y-21020000D01*
X52745211Y-21000315D01*
X52699456Y-20947511D01*
X52689512Y-20878353D01*
X52692476Y-20863905D01*
X52699999Y-20835828D01*
X52700000Y-20835825D01*
X52700000Y-20704175D01*
X52699999Y-20704171D01*
X52692476Y-20676095D01*
X52694137Y-20606245D01*
X52733299Y-20548382D01*
X52797527Y-20520877D01*
X52812250Y-20520000D01*
X53550000Y-20520000D01*
X53550000Y-19872172D01*
X53549998Y-19872138D01*
X53543598Y-19812628D01*
X53543596Y-19812621D01*
X53543558Y-19812518D01*
X53493354Y-19677913D01*
X53493350Y-19677906D01*
X53407190Y-19562812D01*
X53407187Y-19562809D01*
X53407185Y-19562807D01*
X53349317Y-19519487D01*
X53292093Y-19476649D01*
X53292088Y-19476646D01*
X53292089Y-19476646D01*
X53157377Y-19426402D01*
X53157370Y-19426400D01*
X53097852Y-19420000D01*
X53097844Y-19420000D01*
X52450000Y-19420000D01*
X52450000Y-20157749D01*
X52430315Y-20224788D01*
X52377511Y-20270543D01*
X52308353Y-20280487D01*
X52293908Y-20277524D01*
X52265828Y-20270000D01*
X52265826Y-20270000D01*
X52134174Y-20270000D01*
X52134171Y-20270000D01*
X52106092Y-20277524D01*
X52036242Y-20275861D01*
X51978380Y-20236698D01*
X51950877Y-20172469D01*
X51950000Y-20157749D01*
X51950000Y-19420000D01*
X51302155Y-19420000D01*
X51302146Y-19420000D01*
X51242628Y-19426400D01*
X51242621Y-19426402D01*
X51107910Y-19476646D01*
X51107907Y-19476648D01*
X50992813Y-19562807D01*
X50992807Y-19562813D01*
X50906648Y-19677907D01*
X50906646Y-19677910D01*
X50856402Y-19812621D01*
X50856400Y-19812628D01*
X50850000Y-19872146D01*
X50850000Y-19872155D01*
X50850000Y-20520000D01*
X51587750Y-20520000D01*
X51654789Y-20539685D01*
X51700544Y-20592489D01*
X51710488Y-20661647D01*
X51707524Y-20676095D01*
X51700000Y-20704171D01*
X51700000Y-20835828D01*
X51707524Y-20863905D01*
X51705863Y-20933755D01*
X51666701Y-20991618D01*
X51602473Y-21019123D01*
X51587750Y-21020000D01*
X50850000Y-21020000D01*
X50850000Y-21667852D01*
X50856400Y-21727370D01*
X50856401Y-21727372D01*
X50856403Y-21727379D01*
X50906645Y-21862086D01*
X50906649Y-21862093D01*
X50927317Y-21889701D01*
X50992807Y-21977185D01*
X50992813Y-21977191D01*
X50993289Y-21977547D01*
X51107906Y-22063350D01*
X51107913Y-22063354D01*
X51222767Y-22106192D01*
X51253744Y-22123108D01*
X51264855Y-22131426D01*
X51306725Y-22187360D01*
X51311709Y-22257043D01*
X51310734Y-22261526D01*
X51277252Y-22322851D01*
X51277249Y-22322855D01*
X51169886Y-22430218D01*
X51044949Y-22602182D01*
X50948445Y-22791582D01*
X50882752Y-22993763D01*
X50861648Y-23127011D01*
X50849500Y-23203708D01*
X50849500Y-23416286D01*
X50882754Y-23626244D01*
X50928326Y-23766502D01*
X50948441Y-23828406D01*
X50948443Y-23828412D01*
X51030645Y-23989744D01*
X51044951Y-24017820D01*
X51169890Y-24189786D01*
X51320213Y-24340109D01*
X51492182Y-24465050D01*
X51492190Y-24465054D01*
X51492693Y-24465363D01*
X51494174Y-24466496D01*
X51496122Y-24467912D01*
X51496086Y-24467960D01*
X51513034Y-24480934D01*
X51523315Y-24490643D01*
X51558541Y-24550983D01*
X51555552Y-24620789D01*
X51519383Y-24674507D01*
X51512227Y-24680708D01*
X51495814Y-24692723D01*
X51492190Y-24694943D01*
X51320210Y-24819892D01*
X51169892Y-24970210D01*
X51044949Y-25142182D01*
X50948445Y-25331580D01*
X50882752Y-25533759D01*
X50849500Y-25743707D01*
X50849500Y-25956291D01*
X50882752Y-26166239D01*
X50948445Y-26368418D01*
X51041532Y-26551111D01*
X51044951Y-26557820D01*
X51169890Y-26729786D01*
X51320213Y-26880109D01*
X51492182Y-27005050D01*
X51492190Y-27005054D01*
X51492693Y-27005363D01*
X51494174Y-27006496D01*
X51496122Y-27007912D01*
X51496086Y-27007960D01*
X51513034Y-27020934D01*
X51523315Y-27030643D01*
X51558541Y-27090983D01*
X51555552Y-27160789D01*
X51519383Y-27214507D01*
X51512227Y-27220708D01*
X51495814Y-27232723D01*
X51492190Y-27234943D01*
X51320210Y-27359892D01*
X51169892Y-27510210D01*
X51044949Y-27682182D01*
X50948445Y-27871580D01*
X50882752Y-28073759D01*
X50849500Y-28283707D01*
X50849500Y-28496286D01*
X50882754Y-28706244D01*
X50906344Y-28778845D01*
X50948445Y-28908418D01*
X51035446Y-29079165D01*
X51044951Y-29097820D01*
X51169890Y-29269786D01*
X51320213Y-29420109D01*
X51492182Y-29545050D01*
X51492190Y-29545054D01*
X51492693Y-29545363D01*
X51494174Y-29546496D01*
X51496122Y-29547912D01*
X51496086Y-29547960D01*
X51513034Y-29560934D01*
X51523315Y-29570643D01*
X51558541Y-29630983D01*
X51555552Y-29700789D01*
X51519383Y-29754507D01*
X51512227Y-29760708D01*
X51495814Y-29772723D01*
X51492190Y-29774943D01*
X51320210Y-29899892D01*
X51169892Y-30050210D01*
X51126241Y-30110291D01*
X51045235Y-30221789D01*
X51044949Y-30222182D01*
X50948445Y-30411580D01*
X50882752Y-30613759D01*
X50849500Y-30823707D01*
X50849500Y-31036291D01*
X50882753Y-31246245D01*
X50882951Y-31247067D01*
X50882934Y-31247388D01*
X50883515Y-31251051D01*
X50882745Y-31251172D01*
X50879453Y-31316849D01*
X50838782Y-31373662D01*
X50773853Y-31399468D01*
X50762374Y-31400000D01*
X49637625Y-31400000D01*
X49570586Y-31380315D01*
X49524831Y-31327511D01*
X49514887Y-31258353D01*
X49517053Y-31247047D01*
X49517246Y-31246242D01*
X49517247Y-31246239D01*
X49550500Y-31036287D01*
X49550500Y-30823713D01*
X49517246Y-30613757D01*
X49451557Y-30411588D01*
X49355051Y-30222184D01*
X49355049Y-30222181D01*
X49355048Y-30222179D01*
X49354702Y-30221703D01*
X49354700Y-30221699D01*
X49230112Y-30050216D01*
X49079782Y-29899886D01*
X48907824Y-29774953D01*
X48907258Y-29774606D01*
X48905627Y-29773357D01*
X48903901Y-29772103D01*
X48903932Y-29772059D01*
X48886960Y-29759062D01*
X48876683Y-29749357D01*
X48841457Y-29689017D01*
X48844445Y-29619212D01*
X48880612Y-29565495D01*
X48887783Y-29559281D01*
X48904194Y-29547269D01*
X48907792Y-29545063D01*
X48907816Y-29545051D01*
X48969136Y-29500500D01*
X48976196Y-29495371D01*
X48990595Y-29484908D01*
X49079786Y-29420109D01*
X49079788Y-29420106D01*
X49079792Y-29420104D01*
X49079796Y-29420099D01*
X49079848Y-29420062D01*
X49080592Y-29419303D01*
X49230104Y-29269792D01*
X49230106Y-29269788D01*
X49230109Y-29269786D01*
X49355048Y-29097820D01*
X49355047Y-29097820D01*
X49355051Y-29097816D01*
X49355053Y-29097810D01*
X49375445Y-29069744D01*
X49383730Y-29041529D01*
X49451557Y-28908412D01*
X49517246Y-28706243D01*
X49550500Y-28496287D01*
X49550500Y-28283713D01*
X49517246Y-28073757D01*
X49451557Y-27871588D01*
X49355051Y-27682184D01*
X49355049Y-27682181D01*
X49355048Y-27682179D01*
X49354702Y-27681703D01*
X49354700Y-27681699D01*
X49230112Y-27510216D01*
X49079782Y-27359886D01*
X48907824Y-27234953D01*
X48907258Y-27234606D01*
X48905627Y-27233357D01*
X48903901Y-27232103D01*
X48903932Y-27232059D01*
X48886960Y-27219062D01*
X48876683Y-27209357D01*
X48841457Y-27149017D01*
X48844445Y-27079212D01*
X48880613Y-27025493D01*
X48887783Y-27019281D01*
X48904187Y-27007275D01*
X48907816Y-27005051D01*
X48907817Y-27005050D01*
X48929789Y-26989086D01*
X49079786Y-26880109D01*
X49079787Y-26880106D01*
X49079790Y-26880105D01*
X49079792Y-26880104D01*
X49079793Y-26880102D01*
X49079847Y-26880063D01*
X49080605Y-26879290D01*
X49230104Y-26729792D01*
X49230106Y-26729788D01*
X49230109Y-26729786D01*
X49355048Y-26557820D01*
X49355047Y-26557820D01*
X49355051Y-26557816D01*
X49355053Y-26557810D01*
X49375445Y-26529744D01*
X49383730Y-26501529D01*
X49451557Y-26368412D01*
X49517246Y-26166243D01*
X49550500Y-25956287D01*
X49550500Y-25743713D01*
X49517246Y-25533757D01*
X49451557Y-25331588D01*
X49355051Y-25142184D01*
X49355049Y-25142181D01*
X49355048Y-25142179D01*
X49354702Y-25141703D01*
X49354700Y-25141699D01*
X49230112Y-24970216D01*
X49079782Y-24819886D01*
X48907824Y-24694953D01*
X48907258Y-24694606D01*
X48905627Y-24693357D01*
X48903901Y-24692103D01*
X48903932Y-24692059D01*
X48886960Y-24679062D01*
X48876683Y-24669357D01*
X48841457Y-24609017D01*
X48844445Y-24539212D01*
X48880613Y-24485493D01*
X48887783Y-24479281D01*
X48904187Y-24467275D01*
X48907816Y-24465051D01*
X48907817Y-24465050D01*
X48929789Y-24449086D01*
X49079786Y-24340109D01*
X49079787Y-24340106D01*
X49079790Y-24340105D01*
X49079792Y-24340104D01*
X49079793Y-24340102D01*
X49079847Y-24340063D01*
X49080605Y-24339290D01*
X49230104Y-24189792D01*
X49230106Y-24189788D01*
X49230109Y-24189786D01*
X49355048Y-24017820D01*
X49355047Y-24017820D01*
X49355051Y-24017816D01*
X49355053Y-24017810D01*
X49375445Y-23989744D01*
X49383730Y-23961529D01*
X49451557Y-23828412D01*
X49517246Y-23626243D01*
X49550500Y-23416287D01*
X49550500Y-23203713D01*
X49517246Y-22993757D01*
X49451557Y-22791588D01*
X49355051Y-22602184D01*
X49355049Y-22602181D01*
X49355048Y-22602179D01*
X49354702Y-22601703D01*
X49354700Y-22601699D01*
X49230112Y-22430216D01*
X49129176Y-22329280D01*
X49108027Y-22301030D01*
X49101372Y-22288842D01*
X49086521Y-22220572D01*
X49110935Y-22155111D01*
X49113698Y-22151420D01*
X49169621Y-22109562D01*
X49292331Y-22063796D01*
X49292922Y-22063354D01*
X49407543Y-21977548D01*
X49407546Y-21977546D01*
X49493796Y-21862331D01*
X49544091Y-21727483D01*
X49550500Y-21667873D01*
X49550499Y-19872128D01*
X49544091Y-19812517D01*
X49493887Y-19677913D01*
X49493864Y-19677850D01*
X49493800Y-19677678D01*
X49493796Y-19677669D01*
X49493795Y-19677668D01*
X49493793Y-19677664D01*
X49407815Y-19562813D01*
X49407548Y-19562456D01*
X49407542Y-19562450D01*
X49349616Y-19519086D01*
X49292335Y-19476206D01*
X49292332Y-19476204D01*
X49292330Y-19476203D01*
X49292328Y-19476202D01*
X49157482Y-19425908D01*
X49157483Y-19425908D01*
X49097883Y-19419501D01*
X49097881Y-19419500D01*
X49097873Y-19419500D01*
X49097864Y-19419500D01*
X49096841Y-19419500D01*
X47302123Y-19419500D01*
X47300192Y-19419659D01*
X47298545Y-19419885D01*
X47242516Y-19425908D01*
X47107666Y-19476204D01*
X47107665Y-19476205D01*
X46992456Y-19562450D01*
X46992450Y-19562456D01*
X46906205Y-19677665D01*
X46906203Y-19677668D01*
X46855908Y-19812516D01*
X46849500Y-19872125D01*
X46849500Y-21667876D01*
X46849659Y-21669806D01*
X46849885Y-21671454D01*
X46855907Y-21727482D01*
X46883690Y-21801971D01*
X46906202Y-21862328D01*
X46906206Y-21862335D01*
X46926697Y-21889707D01*
X46992450Y-21977542D01*
X46992452Y-21977544D01*
X46992455Y-21977547D01*
X47107664Y-22063793D01*
X47107671Y-22063797D01*
X47222376Y-22106579D01*
X47253351Y-22123491D01*
X47263950Y-22131426D01*
X47264461Y-22131808D01*
X47306334Y-22187740D01*
X47311321Y-22257432D01*
X47311318Y-22257445D01*
X47310342Y-22261930D01*
X47276860Y-22323244D01*
X47169886Y-22430218D01*
X47044949Y-22602182D01*
X46948445Y-22791582D01*
X46882752Y-22993763D01*
X46861648Y-23127011D01*
X46849500Y-23203708D01*
X46849500Y-23416286D01*
X46882754Y-23626244D01*
X46928326Y-23766502D01*
X46948441Y-23828406D01*
X46948443Y-23828412D01*
X47030645Y-23989744D01*
X47044951Y-24017820D01*
X47169890Y-24189786D01*
X47320213Y-24340109D01*
X47492182Y-24465050D01*
X47492190Y-24465054D01*
X47492693Y-24465363D01*
X47494174Y-24466496D01*
X47496122Y-24467912D01*
X47496086Y-24467960D01*
X47513034Y-24480934D01*
X47523315Y-24490643D01*
X47558541Y-24550983D01*
X47555552Y-24620789D01*
X47519383Y-24674507D01*
X47512227Y-24680708D01*
X47495814Y-24692723D01*
X47492190Y-24694943D01*
X47320210Y-24819892D01*
X47169892Y-24970210D01*
X47044949Y-25142182D01*
X46948445Y-25331580D01*
X46882752Y-25533759D01*
X46849500Y-25743707D01*
X46849500Y-25956291D01*
X46882752Y-26166239D01*
X46948445Y-26368418D01*
X47041532Y-26551111D01*
X47044951Y-26557820D01*
X47169890Y-26729786D01*
X47320213Y-26880109D01*
X47492182Y-27005050D01*
X47492190Y-27005054D01*
X47492693Y-27005363D01*
X47494174Y-27006496D01*
X47496122Y-27007912D01*
X47496086Y-27007960D01*
X47513034Y-27020934D01*
X47523315Y-27030643D01*
X47558541Y-27090983D01*
X47555552Y-27160789D01*
X47519383Y-27214507D01*
X47512227Y-27220708D01*
X47495814Y-27232723D01*
X47492190Y-27234943D01*
X47320210Y-27359892D01*
X47169892Y-27510210D01*
X47044949Y-27682182D01*
X46948445Y-27871580D01*
X46882752Y-28073759D01*
X46849500Y-28283707D01*
X46849500Y-28496286D01*
X46882754Y-28706244D01*
X46906344Y-28778845D01*
X46948445Y-28908418D01*
X47035446Y-29079165D01*
X47044951Y-29097820D01*
X47169890Y-29269786D01*
X47320213Y-29420109D01*
X47492182Y-29545050D01*
X47492190Y-29545054D01*
X47492693Y-29545363D01*
X47494174Y-29546496D01*
X47496122Y-29547912D01*
X47496086Y-29547960D01*
X47513034Y-29560934D01*
X47523315Y-29570643D01*
X47558541Y-29630983D01*
X47555552Y-29700789D01*
X47519383Y-29754507D01*
X47512227Y-29760708D01*
X47495814Y-29772723D01*
X47492190Y-29774943D01*
X47320210Y-29899892D01*
X47169892Y-30050210D01*
X47126241Y-30110291D01*
X47045235Y-30221789D01*
X47044949Y-30222182D01*
X46948445Y-30411580D01*
X46882752Y-30613759D01*
X46849500Y-30823707D01*
X46849500Y-31036291D01*
X46882753Y-31246245D01*
X46882951Y-31247067D01*
X46882934Y-31247388D01*
X46883515Y-31251051D01*
X46882745Y-31251172D01*
X46879453Y-31316849D01*
X46838782Y-31373662D01*
X46818129Y-31381870D01*
X46800000Y-31400000D01*
X46800000Y-33000000D01*
X46815641Y-33015641D01*
X46829413Y-33019685D01*
X46875168Y-33072489D01*
X46885112Y-33141647D01*
X46882951Y-33152933D01*
X46882754Y-33153751D01*
X46878779Y-33178849D01*
X46849500Y-33363707D01*
X46849500Y-33363713D01*
X46849500Y-33576287D01*
X46854886Y-33610290D01*
X46882754Y-33786244D01*
X46882754Y-33786247D01*
X46919877Y-33900498D01*
X46919878Y-33900498D01*
X46919878Y-33900499D01*
X46948443Y-33988412D01*
X46948446Y-33988419D01*
X47016267Y-34121524D01*
X47044951Y-34177820D01*
X47169890Y-34349786D01*
X47320213Y-34500109D01*
X47492182Y-34625050D01*
X47492190Y-34625054D01*
X47492693Y-34625363D01*
X47494174Y-34626496D01*
X47496122Y-34627912D01*
X47496086Y-34627960D01*
X47513034Y-34640934D01*
X47523315Y-34650643D01*
X47558541Y-34710983D01*
X47555552Y-34780789D01*
X47519383Y-34834507D01*
X47512227Y-34840708D01*
X47495814Y-34852723D01*
X47492190Y-34854943D01*
X47320210Y-34979892D01*
X47169892Y-35130210D01*
X47044949Y-35302182D01*
X46948445Y-35491580D01*
X46882752Y-35693759D01*
X46849500Y-35903707D01*
X46849500Y-36116291D01*
X46882752Y-36326239D01*
X46948445Y-36528418D01*
X47041532Y-36711111D01*
X47044951Y-36717820D01*
X47169890Y-36889786D01*
X47320213Y-37040109D01*
X47492182Y-37165050D01*
X47492190Y-37165054D01*
X47492693Y-37165363D01*
X47494174Y-37166496D01*
X47496122Y-37167912D01*
X47496086Y-37167960D01*
X47513034Y-37180934D01*
X47523315Y-37190643D01*
X47558541Y-37250983D01*
X47555552Y-37320789D01*
X47519383Y-37374507D01*
X47512227Y-37380708D01*
X47495814Y-37392723D01*
X47492190Y-37394943D01*
X47320210Y-37519892D01*
X47169892Y-37670210D01*
X47169890Y-37670213D01*
X47044951Y-37842179D01*
X47032554Y-37866510D01*
X46948445Y-38031580D01*
X46882752Y-38233759D01*
X46866956Y-38333500D01*
X46866956Y-38333501D01*
X46849500Y-38443713D01*
X46849500Y-38656286D01*
X46882753Y-38866243D01*
X46896614Y-38908901D01*
X46901607Y-38924268D01*
X46904956Y-38934573D01*
X46924664Y-38995227D01*
X46930682Y-39030007D01*
X46931078Y-39043878D01*
X46913315Y-39111452D01*
X46861850Y-39158689D01*
X46855579Y-39161772D01*
X46800860Y-39174500D01*
X46696153Y-39174500D01*
X46541527Y-39205257D01*
X46541496Y-39205264D01*
X46395833Y-39265598D01*
X46395824Y-39265603D01*
X46395807Y-39265613D01*
X46264708Y-39353211D01*
X46264707Y-39353212D01*
X46264701Y-39353217D01*
X46153217Y-39464701D01*
X46153212Y-39464707D01*
X46153211Y-39464708D01*
X46065613Y-39595807D01*
X46065603Y-39595824D01*
X46065598Y-39595833D01*
X46005264Y-39741496D01*
X46005261Y-39741510D01*
X45974500Y-39896150D01*
X45974500Y-39896153D01*
X45974500Y-40053846D01*
X45974500Y-40053848D01*
X45974499Y-40053848D01*
X46005257Y-40208471D01*
X46005264Y-40208502D01*
X46065598Y-40354165D01*
X46065602Y-40354172D01*
X46065609Y-40354185D01*
X46143697Y-40471050D01*
X46158928Y-40502886D01*
X46168834Y-40534522D01*
X46174500Y-40571575D01*
X46174500Y-45077404D01*
X46169476Y-45112341D01*
X46160136Y-45144148D01*
X46144262Y-45178102D01*
X46065613Y-45295807D01*
X46065603Y-45295824D01*
X46065598Y-45295833D01*
X46005264Y-45441496D01*
X46005257Y-45441527D01*
X45974500Y-45596150D01*
X45974500Y-45596153D01*
X45974500Y-45753846D01*
X45974500Y-45753848D01*
X45974499Y-45753848D01*
X46005257Y-45908471D01*
X46005264Y-45908502D01*
X46065598Y-46054165D01*
X46065603Y-46054174D01*
X46065613Y-46054191D01*
X46153211Y-46185290D01*
X46153212Y-46185291D01*
X46153217Y-46185297D01*
X46264701Y-46296781D01*
X46264707Y-46296786D01*
X46264711Y-46296789D01*
X46395814Y-46384390D01*
X46395827Y-46384397D01*
X46541498Y-46444735D01*
X46541503Y-46444737D01*
X46696153Y-46475499D01*
X46696156Y-46475500D01*
X46696158Y-46475500D01*
X46853844Y-46475500D01*
X46853845Y-46475499D01*
X47008497Y-46444737D01*
X47154179Y-46384394D01*
X47285289Y-46296789D01*
X47396789Y-46185289D01*
X47484394Y-46054179D01*
X47544737Y-45908497D01*
X47575500Y-45753842D01*
X47575500Y-45596158D01*
X47575500Y-45596155D01*
X47575500Y-45595973D01*
X47575065Y-45593972D01*
X47550761Y-45471789D01*
X47550760Y-45471786D01*
X47544738Y-45441507D01*
X47544734Y-45441496D01*
X47511099Y-45360293D01*
X47511099Y-45360292D01*
X47484397Y-45295827D01*
X47484390Y-45295814D01*
X47439864Y-45229176D01*
X47406304Y-45178949D01*
X47391071Y-45147111D01*
X47381165Y-45115474D01*
X47375500Y-45078422D01*
X47375500Y-44945776D01*
X47380522Y-44910843D01*
X47384433Y-44897524D01*
X47422206Y-44838747D01*
X47485758Y-44809722D01*
X47489076Y-44809245D01*
X47544182Y-44813780D01*
X47546056Y-44814374D01*
X47564882Y-44822092D01*
X47681588Y-44881557D01*
X47883757Y-44947246D01*
X48093713Y-44980500D01*
X48093714Y-44980500D01*
X48306286Y-44980500D01*
X48306287Y-44980500D01*
X48516243Y-44947246D01*
X48718412Y-44881557D01*
X48907816Y-44785051D01*
X48941888Y-44760297D01*
X48941902Y-44760287D01*
X48972340Y-44738172D01*
X49079786Y-44660109D01*
X49079788Y-44660106D01*
X49079792Y-44660104D01*
X49079795Y-44660100D01*
X49079847Y-44660063D01*
X49080592Y-44659303D01*
X49230104Y-44509792D01*
X49230106Y-44509788D01*
X49230109Y-44509786D01*
X49355048Y-44337820D01*
X49355047Y-44337820D01*
X49355051Y-44337816D01*
X49355053Y-44337810D01*
X49375445Y-44309744D01*
X49383730Y-44281529D01*
X49451557Y-44148412D01*
X49517246Y-43946243D01*
X49550500Y-43736287D01*
X49550500Y-43523713D01*
X49517246Y-43313757D01*
X49451557Y-43111588D01*
X49355051Y-42922184D01*
X49355049Y-42922181D01*
X49355048Y-42922179D01*
X49354702Y-42921703D01*
X49354700Y-42921699D01*
X49230112Y-42750216D01*
X49079782Y-42599886D01*
X48907824Y-42474953D01*
X48907258Y-42474606D01*
X48905627Y-42473357D01*
X48903901Y-42472103D01*
X48903932Y-42472059D01*
X48886960Y-42459062D01*
X48876683Y-42449357D01*
X48841457Y-42389017D01*
X48844445Y-42319212D01*
X48880613Y-42265493D01*
X48887783Y-42259281D01*
X48904187Y-42247275D01*
X48907816Y-42245051D01*
X48907817Y-42245050D01*
X48929789Y-42229086D01*
X49079786Y-42120109D01*
X49079787Y-42120106D01*
X49079790Y-42120105D01*
X49079792Y-42120104D01*
X49079793Y-42120102D01*
X49079847Y-42120063D01*
X49080605Y-42119290D01*
X49230104Y-41969792D01*
X49230106Y-41969788D01*
X49230109Y-41969786D01*
X49355048Y-41797820D01*
X49355047Y-41797820D01*
X49355051Y-41797816D01*
X49355053Y-41797810D01*
X49375445Y-41769744D01*
X49383730Y-41741529D01*
X49451557Y-41608412D01*
X49517246Y-41406243D01*
X49550500Y-41196287D01*
X49550500Y-40983713D01*
X49517246Y-40773757D01*
X49451557Y-40571588D01*
X49355051Y-40382184D01*
X49355049Y-40382181D01*
X49355048Y-40382179D01*
X49354702Y-40381703D01*
X49354700Y-40381699D01*
X49230112Y-40210216D01*
X49079782Y-40059886D01*
X48907824Y-39934953D01*
X48907258Y-39934606D01*
X48905627Y-39933357D01*
X48903901Y-39932103D01*
X48903932Y-39932059D01*
X48886960Y-39919062D01*
X48876683Y-39909357D01*
X48841457Y-39849017D01*
X48844445Y-39779212D01*
X48880612Y-39725495D01*
X48887783Y-39719281D01*
X48904201Y-39707266D01*
X48907810Y-39705054D01*
X48907816Y-39705051D01*
X48960880Y-39666498D01*
X49079786Y-39580109D01*
X49079786Y-39580107D01*
X49079846Y-39580064D01*
X49080605Y-39579290D01*
X49230104Y-39429792D01*
X49230106Y-39429788D01*
X49230109Y-39429786D01*
X49355048Y-39257820D01*
X49355047Y-39257820D01*
X49355051Y-39257816D01*
X49355053Y-39257810D01*
X49375445Y-39229744D01*
X49383730Y-39201529D01*
X49451557Y-39068412D01*
X49517246Y-38866243D01*
X49550500Y-38656287D01*
X49550500Y-38443713D01*
X49517246Y-38233757D01*
X49451557Y-38031588D01*
X49355051Y-37842184D01*
X49355049Y-37842181D01*
X49355048Y-37842179D01*
X49354702Y-37841703D01*
X49354700Y-37841699D01*
X49230112Y-37670216D01*
X49079782Y-37519886D01*
X48907824Y-37394953D01*
X48907258Y-37394606D01*
X48905627Y-37393357D01*
X48903901Y-37392103D01*
X48903932Y-37392059D01*
X48886960Y-37379062D01*
X48876683Y-37369357D01*
X48841457Y-37309017D01*
X48844445Y-37239212D01*
X48880613Y-37185493D01*
X48887783Y-37179281D01*
X48904187Y-37167275D01*
X48907816Y-37165051D01*
X48907817Y-37165050D01*
X48929789Y-37149086D01*
X49079786Y-37040109D01*
X49079787Y-37040106D01*
X49079790Y-37040105D01*
X49079792Y-37040104D01*
X49079793Y-37040102D01*
X49079847Y-37040063D01*
X49080605Y-37039290D01*
X49230104Y-36889792D01*
X49230106Y-36889788D01*
X49230109Y-36889786D01*
X49355048Y-36717820D01*
X49355047Y-36717820D01*
X49355051Y-36717816D01*
X49355053Y-36717810D01*
X49375445Y-36689744D01*
X49383730Y-36661529D01*
X49451557Y-36528412D01*
X49517246Y-36326243D01*
X49550500Y-36116287D01*
X49550500Y-35903713D01*
X49517246Y-35693757D01*
X49451557Y-35491588D01*
X49355051Y-35302184D01*
X49355049Y-35302181D01*
X49355048Y-35302179D01*
X49354702Y-35301703D01*
X49354700Y-35301699D01*
X49230112Y-35130216D01*
X49079782Y-34979886D01*
X48907824Y-34854953D01*
X48907258Y-34854606D01*
X48905627Y-34853357D01*
X48903901Y-34852103D01*
X48903932Y-34852059D01*
X48886960Y-34839062D01*
X48876683Y-34829357D01*
X48841457Y-34769017D01*
X48844445Y-34699212D01*
X48880613Y-34645493D01*
X48887783Y-34639281D01*
X48904187Y-34627275D01*
X48907816Y-34625051D01*
X48907817Y-34625050D01*
X48929789Y-34609086D01*
X49079786Y-34500109D01*
X49079787Y-34500106D01*
X49079790Y-34500105D01*
X49079792Y-34500104D01*
X49079793Y-34500102D01*
X49079847Y-34500063D01*
X49080605Y-34499290D01*
X49230104Y-34349792D01*
X49230106Y-34349788D01*
X49230109Y-34349786D01*
X49355048Y-34177820D01*
X49355047Y-34177820D01*
X49355051Y-34177816D01*
X49355053Y-34177810D01*
X49375445Y-34149744D01*
X49383730Y-34121529D01*
X49451557Y-33988412D01*
X49517246Y-33786243D01*
X49550500Y-33576287D01*
X49550500Y-33363713D01*
X49517246Y-33153757D01*
X49517053Y-33152953D01*
X49517068Y-33152637D01*
X49516484Y-33148945D01*
X49517259Y-33148822D01*
X49520540Y-33083170D01*
X49561201Y-33026351D01*
X49626126Y-33000534D01*
X49637625Y-33000000D01*
X50762374Y-33000000D01*
X50829413Y-33019685D01*
X50875168Y-33072489D01*
X50885112Y-33141647D01*
X50882951Y-33152933D01*
X50882754Y-33153751D01*
X50878779Y-33178849D01*
X50849500Y-33363707D01*
X50849500Y-33363713D01*
X50849500Y-33576287D01*
X50854886Y-33610290D01*
X50882754Y-33786244D01*
X50882754Y-33786247D01*
X50919877Y-33900498D01*
X50919878Y-33900498D01*
X50919878Y-33900499D01*
X50948443Y-33988412D01*
X50948446Y-33988419D01*
X51016267Y-34121524D01*
X51044951Y-34177820D01*
X51169890Y-34349786D01*
X51320213Y-34500109D01*
X51492182Y-34625050D01*
X51492190Y-34625054D01*
X51492693Y-34625363D01*
X51494174Y-34626496D01*
X51496122Y-34627912D01*
X51496086Y-34627960D01*
X51513034Y-34640934D01*
X51523315Y-34650643D01*
X51558541Y-34710983D01*
X51555552Y-34780789D01*
X51519383Y-34834507D01*
X51512227Y-34840708D01*
X51495814Y-34852723D01*
X51492190Y-34854943D01*
X51320210Y-34979892D01*
X51169892Y-35130210D01*
X51044949Y-35302182D01*
X50948445Y-35491580D01*
X50882752Y-35693759D01*
X50849500Y-35903707D01*
X50849500Y-36116291D01*
X50882752Y-36326239D01*
X50948445Y-36528418D01*
X51041532Y-36711111D01*
X51044951Y-36717820D01*
X51169890Y-36889786D01*
X51320213Y-37040109D01*
X51492182Y-37165050D01*
X51492190Y-37165054D01*
X51492693Y-37165363D01*
X51494174Y-37166496D01*
X51496122Y-37167912D01*
X51496086Y-37167960D01*
X51513034Y-37180934D01*
X51523315Y-37190643D01*
X51558541Y-37250983D01*
X51555552Y-37320789D01*
X51519383Y-37374507D01*
X51512227Y-37380708D01*
X51495814Y-37392723D01*
X51492190Y-37394943D01*
X51320210Y-37519892D01*
X51169892Y-37670210D01*
X51169890Y-37670213D01*
X51044951Y-37842179D01*
X51032554Y-37866510D01*
X50948445Y-38031580D01*
X50882752Y-38233759D01*
X50866956Y-38333500D01*
X50866956Y-38333501D01*
X50849500Y-38443713D01*
X50849500Y-38656286D01*
X50882754Y-38866244D01*
X50882754Y-38866247D01*
X50924663Y-38995227D01*
X50947976Y-39066976D01*
X50948444Y-39068414D01*
X51044951Y-39257820D01*
X51169890Y-39429786D01*
X51320213Y-39580109D01*
X51492182Y-39705050D01*
X51492190Y-39705054D01*
X51492693Y-39705363D01*
X51494174Y-39706496D01*
X51496122Y-39707912D01*
X51496086Y-39707960D01*
X51513034Y-39720934D01*
X51523315Y-39730643D01*
X51558541Y-39790983D01*
X51555552Y-39860789D01*
X51519383Y-39914507D01*
X51512227Y-39920708D01*
X51495814Y-39932723D01*
X51492190Y-39934943D01*
X51320210Y-40059892D01*
X51169892Y-40210210D01*
X51044949Y-40382182D01*
X50948445Y-40571580D01*
X50882752Y-40773759D01*
X50849500Y-40983707D01*
X50849500Y-41196291D01*
X50882752Y-41406239D01*
X50948445Y-41608418D01*
X51041532Y-41791111D01*
X51044951Y-41797820D01*
X51169890Y-41969786D01*
X51320213Y-42120109D01*
X51492182Y-42245050D01*
X51492190Y-42245054D01*
X51492693Y-42245363D01*
X51494174Y-42246496D01*
X51496122Y-42247912D01*
X51496086Y-42247960D01*
X51513034Y-42260934D01*
X51523315Y-42270643D01*
X51558541Y-42330983D01*
X51555552Y-42400789D01*
X51519383Y-42454507D01*
X51512227Y-42460708D01*
X51495814Y-42472723D01*
X51492190Y-42474943D01*
X51320210Y-42599892D01*
X51169892Y-42750210D01*
X51044949Y-42922182D01*
X50948445Y-43111580D01*
X50882752Y-43313759D01*
X50849500Y-43523707D01*
X50849500Y-43736291D01*
X50859534Y-43799643D01*
X50880471Y-43931835D01*
X50880472Y-43931842D01*
X50882753Y-43946239D01*
X50882753Y-43946241D01*
X50882754Y-43946243D01*
X50887144Y-43959756D01*
X50887148Y-43959770D01*
X50916304Y-44049500D01*
X50945905Y-44140602D01*
X50948444Y-44148414D01*
X50975901Y-44202301D01*
X51040379Y-44328848D01*
X51044951Y-44337820D01*
X51169890Y-44509786D01*
X51169892Y-44509788D01*
X51320216Y-44660112D01*
X51492169Y-44785042D01*
X51492200Y-44785060D01*
X51492442Y-44785182D01*
X51681588Y-44881557D01*
X51883757Y-44947246D01*
X52093713Y-44980500D01*
X52093714Y-44980500D01*
X52306286Y-44980500D01*
X52306287Y-44980500D01*
X52516243Y-44947246D01*
X52718412Y-44881557D01*
X52907816Y-44785051D01*
X52941888Y-44760297D01*
X52941902Y-44760287D01*
X52972340Y-44738172D01*
X53079786Y-44660109D01*
X53079788Y-44660106D01*
X53079792Y-44660104D01*
X53079795Y-44660100D01*
X53079847Y-44660063D01*
X53080592Y-44659303D01*
X53230104Y-44509792D01*
X53230106Y-44509788D01*
X53230109Y-44509786D01*
X53355048Y-44337820D01*
X53355047Y-44337820D01*
X53355051Y-44337816D01*
X53355053Y-44337810D01*
X53375445Y-44309744D01*
X53383730Y-44281529D01*
X53451557Y-44148412D01*
X53517246Y-43946243D01*
X53550500Y-43736287D01*
X53550500Y-43523713D01*
X53517246Y-43313757D01*
X53451557Y-43111588D01*
X53355051Y-42922184D01*
X53355049Y-42922181D01*
X53355048Y-42922179D01*
X53354702Y-42921703D01*
X53354700Y-42921699D01*
X53230112Y-42750216D01*
X53079782Y-42599886D01*
X52907824Y-42474953D01*
X52907258Y-42474606D01*
X52905627Y-42473357D01*
X52903901Y-42472103D01*
X52903932Y-42472059D01*
X52886960Y-42459062D01*
X52876683Y-42449357D01*
X52841457Y-42389017D01*
X52844445Y-42319212D01*
X52880613Y-42265493D01*
X52887783Y-42259281D01*
X52904187Y-42247275D01*
X52907816Y-42245051D01*
X52907817Y-42245050D01*
X52929789Y-42229086D01*
X53079786Y-42120109D01*
X53079787Y-42120106D01*
X53079790Y-42120105D01*
X53079792Y-42120104D01*
X53079793Y-42120102D01*
X53079847Y-42120063D01*
X53080605Y-42119290D01*
X53230104Y-41969792D01*
X53230106Y-41969788D01*
X53230109Y-41969786D01*
X53355048Y-41797820D01*
X53355047Y-41797820D01*
X53355051Y-41797816D01*
X53355053Y-41797810D01*
X53375445Y-41769744D01*
X53383730Y-41741529D01*
X53451557Y-41608412D01*
X53517246Y-41406243D01*
X53550500Y-41196287D01*
X53550500Y-40983713D01*
X53517246Y-40773757D01*
X53451557Y-40571588D01*
X53355051Y-40382184D01*
X53355049Y-40382181D01*
X53355048Y-40382179D01*
X53354702Y-40381703D01*
X53354700Y-40381699D01*
X53230112Y-40210216D01*
X53079782Y-40059886D01*
X52907824Y-39934953D01*
X52907258Y-39934606D01*
X52905627Y-39933357D01*
X52903901Y-39932103D01*
X52903932Y-39932059D01*
X52886960Y-39919062D01*
X52876683Y-39909357D01*
X52841457Y-39849017D01*
X52844445Y-39779212D01*
X52880612Y-39725495D01*
X52887783Y-39719281D01*
X52904201Y-39707266D01*
X52907810Y-39705054D01*
X52907816Y-39705051D01*
X52960880Y-39666498D01*
X53079786Y-39580109D01*
X53079786Y-39580107D01*
X53079846Y-39580064D01*
X53080605Y-39579290D01*
X53230104Y-39429792D01*
X53230106Y-39429788D01*
X53230109Y-39429786D01*
X53355048Y-39257820D01*
X53355047Y-39257820D01*
X53355051Y-39257816D01*
X53355053Y-39257810D01*
X53375445Y-39229744D01*
X53383730Y-39201529D01*
X53451557Y-39068412D01*
X53517246Y-38866243D01*
X53550500Y-38656287D01*
X53550500Y-38443713D01*
X53517246Y-38233757D01*
X53451557Y-38031588D01*
X53355051Y-37842184D01*
X53355049Y-37842181D01*
X53355048Y-37842179D01*
X53354702Y-37841703D01*
X53354700Y-37841699D01*
X53230112Y-37670216D01*
X53079782Y-37519886D01*
X52907824Y-37394953D01*
X52907258Y-37394606D01*
X52905627Y-37393357D01*
X52903901Y-37392103D01*
X52903932Y-37392059D01*
X52886960Y-37379062D01*
X52876683Y-37369357D01*
X52841457Y-37309017D01*
X52844445Y-37239212D01*
X52880613Y-37185493D01*
X52887783Y-37179281D01*
X52904187Y-37167275D01*
X52907816Y-37165051D01*
X52907817Y-37165050D01*
X52929789Y-37149086D01*
X53079786Y-37040109D01*
X53079787Y-37040106D01*
X53079790Y-37040105D01*
X53079792Y-37040104D01*
X53079793Y-37040102D01*
X53079847Y-37040063D01*
X53080605Y-37039290D01*
X53230104Y-36889792D01*
X53230106Y-36889788D01*
X53230109Y-36889786D01*
X53355048Y-36717820D01*
X53355047Y-36717820D01*
X53355051Y-36717816D01*
X53355053Y-36717810D01*
X53375445Y-36689744D01*
X53383730Y-36661529D01*
X53451557Y-36528412D01*
X53517246Y-36326243D01*
X53550500Y-36116287D01*
X53550500Y-35903713D01*
X53517246Y-35693757D01*
X53451557Y-35491588D01*
X53355051Y-35302184D01*
X53355049Y-35302181D01*
X53355048Y-35302179D01*
X53354702Y-35301703D01*
X53354700Y-35301699D01*
X53230112Y-35130216D01*
X53079782Y-34979886D01*
X52907824Y-34854953D01*
X52907258Y-34854606D01*
X52905627Y-34853357D01*
X52903901Y-34852103D01*
X52903932Y-34852059D01*
X52886960Y-34839062D01*
X52876683Y-34829357D01*
X52841457Y-34769017D01*
X52844445Y-34699212D01*
X52880613Y-34645493D01*
X52887783Y-34639281D01*
X52904187Y-34627275D01*
X52907816Y-34625051D01*
X52907817Y-34625050D01*
X52929789Y-34609086D01*
X53079786Y-34500109D01*
X53079787Y-34500106D01*
X53079790Y-34500105D01*
X53079792Y-34500104D01*
X53079793Y-34500102D01*
X53079847Y-34500063D01*
X53080605Y-34499290D01*
X53230104Y-34349792D01*
X53230106Y-34349788D01*
X53230109Y-34349786D01*
X53355048Y-34177820D01*
X53355047Y-34177820D01*
X53355051Y-34177816D01*
X53355053Y-34177810D01*
X53375445Y-34149744D01*
X53383730Y-34121529D01*
X53451557Y-33988412D01*
X53517246Y-33786243D01*
X53550500Y-33576287D01*
X53550500Y-33363713D01*
X53517246Y-33153757D01*
X53517053Y-33152953D01*
X53517068Y-33152637D01*
X53516484Y-33148945D01*
X53517259Y-33148822D01*
X53520540Y-33083170D01*
X53561201Y-33026351D01*
X53626126Y-33000534D01*
X53637625Y-33000000D01*
X53875500Y-33000000D01*
X53942539Y-33019685D01*
X53988294Y-33072489D01*
X53999500Y-33124000D01*
X53999500Y-57357670D01*
X53994475Y-57392614D01*
X53990070Y-57407612D01*
X53952327Y-57466355D01*
X53950958Y-57467542D01*
X53896097Y-57495018D01*
X53888539Y-57496663D01*
X53862168Y-57499500D01*
X35224000Y-57499500D01*
X35156961Y-57479815D01*
X35111206Y-57427011D01*
X35100000Y-57375500D01*
X35100000Y-55474000D01*
X35119685Y-55406961D01*
X35172489Y-55361206D01*
X35224000Y-55350000D01*
X47400000Y-55350000D01*
X47400000Y-49250000D01*
X24200000Y-49250000D01*
X24200000Y-55350000D01*
X32376000Y-55350000D01*
X32443039Y-55369685D01*
X32488794Y-55422489D01*
X32500000Y-55474000D01*
X32500000Y-57375500D01*
X32480315Y-57442539D01*
X32427511Y-57488294D01*
X32376000Y-57499500D01*
X14642330Y-57499500D01*
X14607389Y-57494475D01*
X14592390Y-57490070D01*
X14533644Y-57452327D01*
X14532457Y-57450958D01*
X14504977Y-57396083D01*
X14503332Y-57388521D01*
X14500500Y-57362168D01*
X14500500Y-33124000D01*
X14520185Y-33056961D01*
X14572989Y-33011206D01*
X14624500Y-33000000D01*
X14762374Y-33000000D01*
X14829413Y-33019685D01*
X14875168Y-33072489D01*
X14885112Y-33141647D01*
X14882951Y-33152933D01*
X14882754Y-33153751D01*
X14878779Y-33178849D01*
X14849500Y-33363707D01*
X14849500Y-33363713D01*
X14849500Y-33576287D01*
X14854886Y-33610290D01*
X14882754Y-33786244D01*
X14882754Y-33786247D01*
X14919877Y-33900498D01*
X14919878Y-33900498D01*
X14919878Y-33900499D01*
X14948443Y-33988412D01*
X14948446Y-33988419D01*
X15016267Y-34121524D01*
X15044951Y-34177820D01*
X15169890Y-34349786D01*
X15320213Y-34500109D01*
X15492182Y-34625050D01*
X15492190Y-34625054D01*
X15492693Y-34625363D01*
X15494174Y-34626496D01*
X15496122Y-34627912D01*
X15496086Y-34627960D01*
X15513034Y-34640934D01*
X15523315Y-34650643D01*
X15558541Y-34710983D01*
X15555552Y-34780789D01*
X15519383Y-34834507D01*
X15512227Y-34840708D01*
X15495814Y-34852723D01*
X15492190Y-34854943D01*
X15320210Y-34979892D01*
X15169892Y-35130210D01*
X15044949Y-35302182D01*
X14948445Y-35491580D01*
X14882752Y-35693759D01*
X14849500Y-35903707D01*
X14849500Y-36116291D01*
X14882752Y-36326239D01*
X14948445Y-36528418D01*
X15041532Y-36711111D01*
X15044951Y-36717820D01*
X15169890Y-36889786D01*
X15320213Y-37040109D01*
X15492182Y-37165050D01*
X15492190Y-37165054D01*
X15492693Y-37165363D01*
X15494174Y-37166496D01*
X15496122Y-37167912D01*
X15496086Y-37167960D01*
X15513034Y-37180934D01*
X15523315Y-37190643D01*
X15558541Y-37250983D01*
X15555552Y-37320789D01*
X15519383Y-37374507D01*
X15512227Y-37380708D01*
X15495814Y-37392723D01*
X15492190Y-37394943D01*
X15320210Y-37519892D01*
X15169892Y-37670210D01*
X15169890Y-37670213D01*
X15044951Y-37842179D01*
X15032554Y-37866510D01*
X14948445Y-38031580D01*
X14882752Y-38233759D01*
X14866956Y-38333500D01*
X14866956Y-38333501D01*
X14849500Y-38443713D01*
X14849500Y-38656286D01*
X14882754Y-38866244D01*
X14882754Y-38866247D01*
X14924663Y-38995227D01*
X14947976Y-39066976D01*
X14948444Y-39068414D01*
X15044951Y-39257820D01*
X15169890Y-39429786D01*
X15320213Y-39580109D01*
X15492182Y-39705050D01*
X15492190Y-39705054D01*
X15492693Y-39705363D01*
X15494174Y-39706496D01*
X15496122Y-39707912D01*
X15496086Y-39707960D01*
X15513034Y-39720934D01*
X15523315Y-39730643D01*
X15558541Y-39790983D01*
X15555552Y-39860789D01*
X15519383Y-39914507D01*
X15512227Y-39920708D01*
X15495814Y-39932723D01*
X15492190Y-39934943D01*
X15320210Y-40059892D01*
X15169892Y-40210210D01*
X15044949Y-40382182D01*
X14948445Y-40571580D01*
X14882752Y-40773759D01*
X14849500Y-40983707D01*
X14849500Y-41196291D01*
X14882752Y-41406239D01*
X14948445Y-41608418D01*
X15041532Y-41791111D01*
X15044951Y-41797820D01*
X15169890Y-41969786D01*
X15320213Y-42120109D01*
X15492182Y-42245050D01*
X15492190Y-42245054D01*
X15492693Y-42245363D01*
X15494174Y-42246496D01*
X15496122Y-42247912D01*
X15496086Y-42247960D01*
X15513034Y-42260934D01*
X15523315Y-42270643D01*
X15558541Y-42330983D01*
X15555552Y-42400789D01*
X15519383Y-42454507D01*
X15512227Y-42460708D01*
X15495814Y-42472723D01*
X15492190Y-42474943D01*
X15320210Y-42599892D01*
X15169892Y-42750210D01*
X15044949Y-42922182D01*
X14948445Y-43111580D01*
X14882752Y-43313759D01*
X14849500Y-43523707D01*
X14849500Y-43736291D01*
X14859534Y-43799643D01*
X14880471Y-43931835D01*
X14880472Y-43931842D01*
X14882753Y-43946239D01*
X14882753Y-43946241D01*
X14882754Y-43946243D01*
X14887144Y-43959756D01*
X14887148Y-43959770D01*
X14916304Y-44049500D01*
X14945905Y-44140602D01*
X14948444Y-44148414D01*
X14975901Y-44202301D01*
X15040379Y-44328848D01*
X15044951Y-44337820D01*
X15169890Y-44509786D01*
X15169892Y-44509788D01*
X15320216Y-44660112D01*
X15492169Y-44785042D01*
X15492200Y-44785060D01*
X15492442Y-44785182D01*
X15681588Y-44881557D01*
X15883757Y-44947246D01*
X16093713Y-44980500D01*
X16093714Y-44980500D01*
X16306286Y-44980500D01*
X16306287Y-44980500D01*
X16516243Y-44947246D01*
X16718412Y-44881557D01*
X16907816Y-44785051D01*
X16941888Y-44760297D01*
X16941902Y-44760287D01*
X16972340Y-44738172D01*
X17079786Y-44660109D01*
X17079788Y-44660106D01*
X17079792Y-44660104D01*
X17079795Y-44660100D01*
X17079847Y-44660063D01*
X17080592Y-44659303D01*
X17230104Y-44509792D01*
X17230106Y-44509788D01*
X17230109Y-44509786D01*
X17355048Y-44337820D01*
X17355047Y-44337820D01*
X17355051Y-44337816D01*
X17355053Y-44337810D01*
X17375445Y-44309744D01*
X17383730Y-44281529D01*
X17451557Y-44148412D01*
X17517246Y-43946243D01*
X17550500Y-43736287D01*
X17550500Y-43523713D01*
X17517246Y-43313757D01*
X17451557Y-43111588D01*
X17355051Y-42922184D01*
X17355049Y-42922181D01*
X17355048Y-42922179D01*
X17354702Y-42921703D01*
X17354700Y-42921699D01*
X17230112Y-42750216D01*
X17079782Y-42599886D01*
X16907824Y-42474953D01*
X16907258Y-42474606D01*
X16905627Y-42473357D01*
X16903901Y-42472103D01*
X16903932Y-42472059D01*
X16886960Y-42459062D01*
X16876683Y-42449357D01*
X16841457Y-42389017D01*
X16844445Y-42319212D01*
X16880613Y-42265493D01*
X16887783Y-42259281D01*
X16904187Y-42247275D01*
X16907816Y-42245051D01*
X16907817Y-42245050D01*
X16929789Y-42229086D01*
X17079786Y-42120109D01*
X17079787Y-42120106D01*
X17079790Y-42120105D01*
X17079792Y-42120104D01*
X17079793Y-42120102D01*
X17079847Y-42120063D01*
X17080605Y-42119290D01*
X17230104Y-41969792D01*
X17230106Y-41969788D01*
X17230109Y-41969786D01*
X17355048Y-41797820D01*
X17355047Y-41797820D01*
X17355051Y-41797816D01*
X17355053Y-41797810D01*
X17375445Y-41769744D01*
X17383730Y-41741529D01*
X17451557Y-41608412D01*
X17517246Y-41406243D01*
X17550500Y-41196287D01*
X17550500Y-40983713D01*
X17517246Y-40773757D01*
X17451557Y-40571588D01*
X17355051Y-40382184D01*
X17355049Y-40382181D01*
X17355048Y-40382179D01*
X17354702Y-40381703D01*
X17354700Y-40381699D01*
X17230112Y-40210216D01*
X17079782Y-40059886D01*
X16907824Y-39934953D01*
X16907258Y-39934606D01*
X16905627Y-39933357D01*
X16903901Y-39932103D01*
X16903932Y-39932059D01*
X16886960Y-39919062D01*
X16876683Y-39909357D01*
X16841457Y-39849017D01*
X16844445Y-39779212D01*
X16880612Y-39725495D01*
X16887783Y-39719281D01*
X16904201Y-39707266D01*
X16907810Y-39705054D01*
X16907816Y-39705051D01*
X16960880Y-39666498D01*
X17079786Y-39580109D01*
X17079786Y-39580107D01*
X17079846Y-39580064D01*
X17080605Y-39579290D01*
X17230104Y-39429792D01*
X17230106Y-39429788D01*
X17230109Y-39429786D01*
X17355048Y-39257820D01*
X17355047Y-39257820D01*
X17355051Y-39257816D01*
X17355053Y-39257810D01*
X17375445Y-39229744D01*
X17383730Y-39201529D01*
X17451557Y-39068412D01*
X17517246Y-38866243D01*
X17550500Y-38656287D01*
X17550500Y-38443713D01*
X17517246Y-38233757D01*
X17451557Y-38031588D01*
X17355051Y-37842184D01*
X17355049Y-37842181D01*
X17355048Y-37842179D01*
X17354702Y-37841703D01*
X17354700Y-37841699D01*
X17230112Y-37670216D01*
X17079782Y-37519886D01*
X16907824Y-37394953D01*
X16907258Y-37394606D01*
X16905627Y-37393357D01*
X16903901Y-37392103D01*
X16903932Y-37392059D01*
X16886960Y-37379062D01*
X16876683Y-37369357D01*
X16841457Y-37309017D01*
X16844445Y-37239212D01*
X16880613Y-37185493D01*
X16887783Y-37179281D01*
X16904187Y-37167275D01*
X16907816Y-37165051D01*
X16907817Y-37165050D01*
X16929789Y-37149086D01*
X17079786Y-37040109D01*
X17079787Y-37040106D01*
X17079790Y-37040105D01*
X17079792Y-37040104D01*
X17079793Y-37040102D01*
X17079847Y-37040063D01*
X17080605Y-37039290D01*
X17230104Y-36889792D01*
X17230106Y-36889788D01*
X17230109Y-36889786D01*
X17355048Y-36717820D01*
X17355047Y-36717820D01*
X17355051Y-36717816D01*
X17355053Y-36717810D01*
X17375445Y-36689744D01*
X17383730Y-36661529D01*
X17451557Y-36528412D01*
X17517246Y-36326243D01*
X17550500Y-36116287D01*
X17550500Y-35903713D01*
X17517246Y-35693757D01*
X17451557Y-35491588D01*
X17355051Y-35302184D01*
X17355049Y-35302181D01*
X17355048Y-35302179D01*
X17354702Y-35301703D01*
X17354700Y-35301699D01*
X17230112Y-35130216D01*
X17079782Y-34979886D01*
X16907824Y-34854953D01*
X16907258Y-34854606D01*
X16905627Y-34853357D01*
X16903901Y-34852103D01*
X16903932Y-34852059D01*
X16886960Y-34839062D01*
X16876683Y-34829357D01*
X16841457Y-34769017D01*
X16844445Y-34699212D01*
X16880613Y-34645493D01*
X16887783Y-34639281D01*
X16904187Y-34627275D01*
X16907816Y-34625051D01*
X16907817Y-34625050D01*
X16929789Y-34609086D01*
X17079786Y-34500109D01*
X17079787Y-34500106D01*
X17079790Y-34500105D01*
X17079792Y-34500104D01*
X17079793Y-34500102D01*
X17079847Y-34500063D01*
X17080605Y-34499290D01*
X17230104Y-34349792D01*
X17230106Y-34349788D01*
X17230109Y-34349786D01*
X17355048Y-34177820D01*
X17355047Y-34177820D01*
X17355051Y-34177816D01*
X17355053Y-34177810D01*
X17375445Y-34149744D01*
X17383730Y-34121529D01*
X17451557Y-33988412D01*
X17517246Y-33786243D01*
X17550500Y-33576287D01*
X17550500Y-33363713D01*
X17517246Y-33153757D01*
X17517053Y-33152953D01*
X17517068Y-33152637D01*
X17516484Y-33148945D01*
X17517259Y-33148822D01*
X17520540Y-33083170D01*
X17561201Y-33026351D01*
X17626126Y-33000534D01*
X17637625Y-33000000D01*
X18762374Y-33000000D01*
X18829413Y-33019685D01*
X18875168Y-33072489D01*
X18885112Y-33141647D01*
X18882951Y-33152933D01*
X18882754Y-33153751D01*
X18878779Y-33178849D01*
X18849500Y-33363707D01*
X18849500Y-33363713D01*
X18849500Y-33576287D01*
X18854886Y-33610290D01*
X18882754Y-33786244D01*
X18882754Y-33786247D01*
X18919877Y-33900498D01*
X18919878Y-33900498D01*
X18919878Y-33900499D01*
X18948443Y-33988412D01*
X18948446Y-33988419D01*
X19016267Y-34121524D01*
X19044951Y-34177820D01*
X19169890Y-34349786D01*
X19320213Y-34500109D01*
X19492182Y-34625050D01*
X19492190Y-34625054D01*
X19492693Y-34625363D01*
X19494174Y-34626496D01*
X19496122Y-34627912D01*
X19496086Y-34627960D01*
X19513034Y-34640934D01*
X19523315Y-34650643D01*
X19558541Y-34710983D01*
X19555552Y-34780789D01*
X19519383Y-34834507D01*
X19512227Y-34840708D01*
X19495814Y-34852723D01*
X19492190Y-34854943D01*
X19320210Y-34979892D01*
X19169892Y-35130210D01*
X19044949Y-35302182D01*
X18948445Y-35491580D01*
X18882752Y-35693759D01*
X18849500Y-35903707D01*
X18849500Y-36116291D01*
X18882752Y-36326239D01*
X18948445Y-36528418D01*
X19041532Y-36711111D01*
X19044951Y-36717820D01*
X19169890Y-36889786D01*
X19320213Y-37040109D01*
X19492182Y-37165050D01*
X19492190Y-37165054D01*
X19492693Y-37165363D01*
X19494174Y-37166496D01*
X19496122Y-37167912D01*
X19496086Y-37167960D01*
X19513034Y-37180934D01*
X19523315Y-37190643D01*
X19558541Y-37250983D01*
X19555552Y-37320789D01*
X19519383Y-37374507D01*
X19512227Y-37380708D01*
X19495814Y-37392723D01*
X19492190Y-37394943D01*
X19320210Y-37519892D01*
X19169892Y-37670210D01*
X19169890Y-37670213D01*
X19044951Y-37842179D01*
X19032554Y-37866510D01*
X18948445Y-38031580D01*
X18882752Y-38233759D01*
X18866956Y-38333500D01*
X18866956Y-38333501D01*
X18849500Y-38443713D01*
X18849500Y-38656286D01*
X18882754Y-38866244D01*
X18882754Y-38866247D01*
X18924663Y-38995227D01*
X18947976Y-39066976D01*
X18948444Y-39068414D01*
X19044951Y-39257820D01*
X19169890Y-39429786D01*
X19320213Y-39580109D01*
X19492182Y-39705050D01*
X19492190Y-39705054D01*
X19492693Y-39705363D01*
X19494174Y-39706496D01*
X19496122Y-39707912D01*
X19496086Y-39707960D01*
X19513034Y-39720934D01*
X19523315Y-39730643D01*
X19558541Y-39790983D01*
X19555552Y-39860789D01*
X19519383Y-39914507D01*
X19512227Y-39920708D01*
X19495814Y-39932723D01*
X19492190Y-39934943D01*
X19320210Y-40059892D01*
X19169892Y-40210210D01*
X19044949Y-40382182D01*
X18948445Y-40571580D01*
X18882752Y-40773759D01*
X18849500Y-40983707D01*
X18849500Y-41196291D01*
X18882752Y-41406239D01*
X18948445Y-41608418D01*
X19041532Y-41791111D01*
X19044951Y-41797820D01*
X19169890Y-41969786D01*
X19320213Y-42120109D01*
X19492182Y-42245050D01*
X19492190Y-42245054D01*
X19492693Y-42245363D01*
X19494174Y-42246496D01*
X19496122Y-42247912D01*
X19496086Y-42247960D01*
X19513034Y-42260934D01*
X19523315Y-42270643D01*
X19558541Y-42330983D01*
X19555552Y-42400789D01*
X19519383Y-42454507D01*
X19512227Y-42460708D01*
X19495814Y-42472723D01*
X19492190Y-42474943D01*
X19320210Y-42599892D01*
X19169892Y-42750210D01*
X19044949Y-42922182D01*
X18948445Y-43111580D01*
X18882752Y-43313759D01*
X18849500Y-43523707D01*
X18849500Y-43736291D01*
X18859534Y-43799643D01*
X18880471Y-43931835D01*
X18880472Y-43931842D01*
X18882753Y-43946239D01*
X18882753Y-43946241D01*
X18882754Y-43946243D01*
X18887144Y-43959756D01*
X18887148Y-43959770D01*
X18916304Y-44049500D01*
X18945905Y-44140602D01*
X18948444Y-44148414D01*
X18975901Y-44202301D01*
X19040379Y-44328848D01*
X19044951Y-44337820D01*
X19169890Y-44509786D01*
X19169892Y-44509788D01*
X19320216Y-44660112D01*
X19492169Y-44785042D01*
X19492200Y-44785060D01*
X19492442Y-44785182D01*
X19681588Y-44881557D01*
X19883757Y-44947246D01*
X20093713Y-44980500D01*
X20093714Y-44980500D01*
X20306286Y-44980500D01*
X20306287Y-44980500D01*
X20516243Y-44947246D01*
X20718412Y-44881557D01*
X20907816Y-44785051D01*
X20941888Y-44760297D01*
X20941902Y-44760287D01*
X20972340Y-44738172D01*
X21079786Y-44660109D01*
X21079788Y-44660106D01*
X21079792Y-44660104D01*
X21079795Y-44660100D01*
X21079847Y-44660063D01*
X21080592Y-44659303D01*
X21230104Y-44509792D01*
X21230106Y-44509788D01*
X21230109Y-44509786D01*
X21355048Y-44337820D01*
X21355048Y-44337818D01*
X21355051Y-44337816D01*
X21355052Y-44337813D01*
X21361566Y-44328848D01*
X25579499Y-44328848D01*
X25610257Y-44483471D01*
X25610264Y-44483502D01*
X25670598Y-44629165D01*
X25670603Y-44629174D01*
X25670613Y-44629191D01*
X25758212Y-44760291D01*
X25758217Y-44760297D01*
X25869701Y-44871781D01*
X25869707Y-44871786D01*
X25869711Y-44871789D01*
X26000814Y-44959390D01*
X26000827Y-44959397D01*
X26146498Y-45019735D01*
X26146503Y-45019737D01*
X26208847Y-45032138D01*
X26296696Y-45049613D01*
X26318919Y-45056244D01*
X26338788Y-45064265D01*
X26391303Y-45104491D01*
X26398686Y-45114261D01*
X26414311Y-45141556D01*
X26450602Y-45229172D01*
X26450604Y-45229175D01*
X26450604Y-45229176D01*
X26450613Y-45229191D01*
X26538211Y-45360290D01*
X26538212Y-45360291D01*
X26538217Y-45360297D01*
X26649701Y-45471781D01*
X26649707Y-45471786D01*
X26649711Y-45471789D01*
X26780814Y-45559390D01*
X26780827Y-45559397D01*
X26926498Y-45619735D01*
X26926503Y-45619737D01*
X27081153Y-45650499D01*
X27081156Y-45650500D01*
X27081158Y-45650500D01*
X27238844Y-45650500D01*
X27238845Y-45650499D01*
X27393497Y-45619737D01*
X27539179Y-45559394D01*
X27539185Y-45559390D01*
X27656055Y-45481299D01*
X27687885Y-45466071D01*
X27707574Y-45459906D01*
X27719529Y-45456164D01*
X27756578Y-45450500D01*
X31942404Y-45450500D01*
X31977336Y-45455521D01*
X32009150Y-45464863D01*
X32043098Y-45480735D01*
X32160814Y-45559390D01*
X32160827Y-45559397D01*
X32306498Y-45619735D01*
X32306503Y-45619737D01*
X32461153Y-45650499D01*
X32461156Y-45650500D01*
X32461158Y-45650500D01*
X32618844Y-45650500D01*
X32618845Y-45650499D01*
X32773497Y-45619737D01*
X32919179Y-45559394D01*
X33050289Y-45471789D01*
X33080582Y-45441496D01*
X33161788Y-45360291D01*
X33161789Y-45360289D01*
X33249394Y-45229179D01*
X33309737Y-45083497D01*
X33340500Y-44928842D01*
X33340500Y-44771158D01*
X33340500Y-44771155D01*
X33340500Y-44770971D01*
X33340064Y-44768966D01*
X33318410Y-44660104D01*
X33309737Y-44616503D01*
X33309735Y-44616498D01*
X33249397Y-44470827D01*
X33249390Y-44470814D01*
X33161789Y-44339711D01*
X33161786Y-44339707D01*
X33161781Y-44339701D01*
X33050297Y-44228217D01*
X33050291Y-44228212D01*
X33050290Y-44228211D01*
X32919191Y-44140613D01*
X32919190Y-44140612D01*
X32919185Y-44140609D01*
X32919172Y-44140602D01*
X32919165Y-44140598D01*
X32773502Y-44080264D01*
X32773471Y-44080257D01*
X32618847Y-44049500D01*
X32618845Y-44049500D01*
X32618842Y-44049500D01*
X32461158Y-44049500D01*
X32461155Y-44049500D01*
X32461153Y-44049500D01*
X32306527Y-44080257D01*
X32306496Y-44080264D01*
X32160833Y-44140598D01*
X32160824Y-44140603D01*
X32160797Y-44140619D01*
X32043949Y-44218695D01*
X32012115Y-44233927D01*
X31980478Y-44243834D01*
X31943422Y-44249500D01*
X30676796Y-44249500D01*
X30641855Y-44244475D01*
X30626856Y-44240070D01*
X30568087Y-44202301D01*
X30563275Y-44196748D01*
X30535368Y-44139733D01*
X30523539Y-44080263D01*
X30510858Y-44016511D01*
X30510856Y-44016508D01*
X30510856Y-44016504D01*
X30481752Y-43946239D01*
X30450516Y-43870828D01*
X30450509Y-43870815D01*
X30362908Y-43739712D01*
X30362905Y-43739708D01*
X30362904Y-43739707D01*
X30362900Y-43739702D01*
X30251416Y-43628218D01*
X30251410Y-43628213D01*
X30251409Y-43628212D01*
X30120310Y-43540614D01*
X30120309Y-43540613D01*
X30120304Y-43540610D01*
X30120291Y-43540603D01*
X30120289Y-43540602D01*
X30120284Y-43540599D01*
X29974621Y-43480265D01*
X29974590Y-43480258D01*
X29819966Y-43449501D01*
X29819964Y-43449501D01*
X29819961Y-43449501D01*
X29662277Y-43449501D01*
X29662274Y-43449501D01*
X29662272Y-43449501D01*
X29507646Y-43480258D01*
X29507615Y-43480265D01*
X29361952Y-43540599D01*
X29361943Y-43540604D01*
X29361916Y-43540620D01*
X29245068Y-43618696D01*
X29213234Y-43633928D01*
X29181597Y-43643835D01*
X29144541Y-43649501D01*
X26977597Y-43649501D01*
X26942662Y-43644478D01*
X26910853Y-43635138D01*
X26876899Y-43619264D01*
X26759185Y-43540609D01*
X26759172Y-43540602D01*
X26759165Y-43540598D01*
X26613502Y-43480264D01*
X26613471Y-43480257D01*
X26458847Y-43449500D01*
X26458845Y-43449500D01*
X26458842Y-43449500D01*
X26301158Y-43449500D01*
X26301155Y-43449500D01*
X26301153Y-43449500D01*
X26146527Y-43480257D01*
X26146496Y-43480264D01*
X26000833Y-43540598D01*
X26000824Y-43540603D01*
X26000807Y-43540613D01*
X25869708Y-43628211D01*
X25869707Y-43628212D01*
X25869701Y-43628217D01*
X25758217Y-43739701D01*
X25758212Y-43739707D01*
X25758211Y-43739708D01*
X25670613Y-43870807D01*
X25670603Y-43870824D01*
X25670598Y-43870833D01*
X25610264Y-44016496D01*
X25610257Y-44016527D01*
X25579500Y-44171150D01*
X25579500Y-44171153D01*
X25579500Y-44328846D01*
X25579500Y-44328848D01*
X25579499Y-44328848D01*
X21361566Y-44328848D01*
X21375078Y-44310250D01*
X21382273Y-44284484D01*
X21382964Y-44283031D01*
X21451557Y-44148412D01*
X21517246Y-43946243D01*
X21550500Y-43736287D01*
X21550500Y-43523713D01*
X21517246Y-43313757D01*
X21451557Y-43111588D01*
X21355051Y-42922184D01*
X21355049Y-42922181D01*
X21355048Y-42922179D01*
X21354702Y-42921703D01*
X21354700Y-42921699D01*
X21230112Y-42750216D01*
X21079782Y-42599886D01*
X20907824Y-42474953D01*
X20907258Y-42474606D01*
X20905627Y-42473357D01*
X20903901Y-42472103D01*
X20903932Y-42472059D01*
X20886960Y-42459062D01*
X20876683Y-42449357D01*
X20841457Y-42389017D01*
X20844445Y-42319212D01*
X20880613Y-42265493D01*
X20887783Y-42259281D01*
X20904187Y-42247275D01*
X20907816Y-42245051D01*
X20907817Y-42245050D01*
X20929789Y-42229086D01*
X21079786Y-42120109D01*
X21079787Y-42120106D01*
X21079790Y-42120105D01*
X21079792Y-42120104D01*
X21079793Y-42120102D01*
X21079847Y-42120063D01*
X21080605Y-42119290D01*
X21230104Y-41969792D01*
X21230106Y-41969788D01*
X21230109Y-41969786D01*
X21355048Y-41797820D01*
X21355047Y-41797820D01*
X21355051Y-41797816D01*
X21355053Y-41797810D01*
X21375445Y-41769744D01*
X21383730Y-41741529D01*
X21451557Y-41608412D01*
X21517246Y-41406243D01*
X21550500Y-41196287D01*
X21550500Y-40983713D01*
X21517246Y-40773757D01*
X21451557Y-40571588D01*
X21355051Y-40382184D01*
X21355049Y-40382181D01*
X21355048Y-40382179D01*
X21354702Y-40381703D01*
X21354700Y-40381699D01*
X21230112Y-40210216D01*
X21079782Y-40059886D01*
X20907824Y-39934953D01*
X20907258Y-39934606D01*
X20905627Y-39933357D01*
X20903901Y-39932103D01*
X20903932Y-39932059D01*
X20886960Y-39919062D01*
X20876683Y-39909357D01*
X20841457Y-39849017D01*
X20844445Y-39779212D01*
X20880612Y-39725495D01*
X20887783Y-39719281D01*
X20904201Y-39707266D01*
X20907810Y-39705054D01*
X20907816Y-39705051D01*
X20960880Y-39666498D01*
X21079786Y-39580109D01*
X21079786Y-39580107D01*
X21079846Y-39580064D01*
X21080605Y-39579290D01*
X21230104Y-39429792D01*
X21230106Y-39429788D01*
X21230109Y-39429786D01*
X21355048Y-39257820D01*
X21355047Y-39257820D01*
X21355051Y-39257816D01*
X21355053Y-39257810D01*
X21375445Y-39229744D01*
X21383730Y-39201529D01*
X21451557Y-39068412D01*
X21517246Y-38866243D01*
X21550500Y-38656287D01*
X21550500Y-38443713D01*
X21517246Y-38233757D01*
X21499405Y-38178848D01*
X32299499Y-38178848D01*
X32330257Y-38333471D01*
X32330261Y-38333489D01*
X32330264Y-38333500D01*
X32330263Y-38333500D01*
X32390598Y-38479165D01*
X32390603Y-38479174D01*
X32390613Y-38479191D01*
X32478211Y-38610290D01*
X32478212Y-38610291D01*
X32478217Y-38610297D01*
X32589701Y-38721781D01*
X32589707Y-38721786D01*
X32589711Y-38721789D01*
X32720814Y-38809390D01*
X32720827Y-38809397D01*
X32866498Y-38869735D01*
X32866503Y-38869737D01*
X32893474Y-38875101D01*
X32931099Y-38882586D01*
X32931123Y-38882590D01*
X32931147Y-38882595D01*
X33004364Y-38897159D01*
X33037644Y-38908901D01*
X33067021Y-38924268D01*
X33097227Y-38946462D01*
X34052817Y-39902052D01*
X34073967Y-39930305D01*
X34089854Y-39959399D01*
X34102640Y-39994635D01*
X34130259Y-40133484D01*
X34130260Y-40133488D01*
X34130261Y-40133491D01*
X34130264Y-40133501D01*
X34130267Y-40133509D01*
X34130272Y-40133523D01*
X34190598Y-40279165D01*
X34190603Y-40279174D01*
X34190613Y-40279191D01*
X34278211Y-40410290D01*
X34278212Y-40410291D01*
X34278217Y-40410297D01*
X34389701Y-40521781D01*
X34389707Y-40521786D01*
X34389711Y-40521789D01*
X34520814Y-40609390D01*
X34520827Y-40609397D01*
X34666498Y-40669735D01*
X34666503Y-40669737D01*
X34821153Y-40700499D01*
X34821156Y-40700500D01*
X34821158Y-40700500D01*
X34978844Y-40700500D01*
X34978845Y-40700499D01*
X35133497Y-40669737D01*
X35279179Y-40609394D01*
X35410289Y-40521789D01*
X35521789Y-40410289D01*
X35609394Y-40279179D01*
X35669737Y-40133497D01*
X35700500Y-39978842D01*
X35700500Y-39821158D01*
X35700500Y-39821155D01*
X35700500Y-39820971D01*
X35700064Y-39818966D01*
X35684657Y-39741510D01*
X35669737Y-39666503D01*
X35669735Y-39666498D01*
X35609397Y-39520827D01*
X35609390Y-39520814D01*
X35521789Y-39389711D01*
X35521786Y-39389707D01*
X35521781Y-39389701D01*
X35410297Y-39278217D01*
X35410291Y-39278212D01*
X35410290Y-39278211D01*
X35279191Y-39190613D01*
X35279190Y-39190612D01*
X35279185Y-39190609D01*
X35279172Y-39190602D01*
X35279165Y-39190598D01*
X35133523Y-39130272D01*
X35133509Y-39130267D01*
X35133501Y-39130264D01*
X35133491Y-39130261D01*
X35133486Y-39130260D01*
X35133483Y-39130259D01*
X34995636Y-39102839D01*
X34962354Y-39091098D01*
X34932980Y-39075733D01*
X34902773Y-39053538D01*
X33947181Y-38097946D01*
X33926031Y-38069693D01*
X33910144Y-38040599D01*
X33897359Y-38005366D01*
X33869738Y-37866510D01*
X33869737Y-37866503D01*
X33859662Y-37842179D01*
X33834712Y-37781945D01*
X33809400Y-37720833D01*
X33809395Y-37720824D01*
X33809390Y-37720814D01*
X33721789Y-37589711D01*
X33721786Y-37589707D01*
X33721781Y-37589701D01*
X33610297Y-37478217D01*
X33610291Y-37478212D01*
X33610290Y-37478211D01*
X33479191Y-37390613D01*
X33479190Y-37390612D01*
X33479185Y-37390609D01*
X33479172Y-37390602D01*
X33479165Y-37390598D01*
X33333502Y-37330264D01*
X33333471Y-37330257D01*
X33178847Y-37299500D01*
X33178845Y-37299500D01*
X33178842Y-37299500D01*
X33021158Y-37299500D01*
X33021155Y-37299500D01*
X33021153Y-37299500D01*
X32866527Y-37330257D01*
X32866496Y-37330264D01*
X32720833Y-37390598D01*
X32720824Y-37390603D01*
X32720807Y-37390613D01*
X32589708Y-37478211D01*
X32589707Y-37478212D01*
X32589701Y-37478217D01*
X32478217Y-37589701D01*
X32478212Y-37589707D01*
X32478211Y-37589708D01*
X32390613Y-37720807D01*
X32390603Y-37720824D01*
X32390598Y-37720833D01*
X32330264Y-37866496D01*
X32330257Y-37866527D01*
X32299500Y-38021150D01*
X32299500Y-38021153D01*
X32299500Y-38178846D01*
X32299500Y-38178848D01*
X32299499Y-38178848D01*
X21499405Y-38178848D01*
X21451557Y-38031588D01*
X21355051Y-37842184D01*
X21355049Y-37842181D01*
X21355048Y-37842179D01*
X21354702Y-37841703D01*
X21354700Y-37841699D01*
X21230112Y-37670216D01*
X21079782Y-37519886D01*
X20907824Y-37394953D01*
X20907258Y-37394606D01*
X20905627Y-37393357D01*
X20903901Y-37392103D01*
X20903932Y-37392059D01*
X20886960Y-37379062D01*
X20876683Y-37369357D01*
X20841457Y-37309017D01*
X20844445Y-37239212D01*
X20880613Y-37185493D01*
X20887783Y-37179281D01*
X20904187Y-37167275D01*
X20907816Y-37165051D01*
X20907817Y-37165050D01*
X20929789Y-37149086D01*
X21079786Y-37040109D01*
X21079787Y-37040106D01*
X21079790Y-37040105D01*
X21079792Y-37040104D01*
X21079793Y-37040102D01*
X21079847Y-37040063D01*
X21080605Y-37039290D01*
X21230104Y-36889792D01*
X21230106Y-36889788D01*
X21230109Y-36889786D01*
X21355048Y-36717820D01*
X21355047Y-36717820D01*
X21355051Y-36717816D01*
X21355053Y-36717810D01*
X21375445Y-36689744D01*
X21383730Y-36661529D01*
X21451557Y-36528412D01*
X21517246Y-36326243D01*
X21550500Y-36116287D01*
X21550500Y-35903713D01*
X21517246Y-35693757D01*
X21451557Y-35491588D01*
X21355051Y-35302184D01*
X21355049Y-35302181D01*
X21355048Y-35302179D01*
X21354702Y-35301703D01*
X21354700Y-35301699D01*
X21230112Y-35130216D01*
X21079782Y-34979886D01*
X20907824Y-34854953D01*
X20907258Y-34854606D01*
X20905627Y-34853357D01*
X20903901Y-34852103D01*
X20903932Y-34852059D01*
X20886960Y-34839062D01*
X20876683Y-34829357D01*
X20841457Y-34769017D01*
X20844445Y-34699212D01*
X20880613Y-34645493D01*
X20887783Y-34639281D01*
X20904187Y-34627275D01*
X20907816Y-34625051D01*
X20907817Y-34625050D01*
X20929789Y-34609086D01*
X21079786Y-34500109D01*
X21079787Y-34500106D01*
X21079790Y-34500105D01*
X21079792Y-34500104D01*
X21079793Y-34500102D01*
X21079847Y-34500063D01*
X21080605Y-34499290D01*
X21230104Y-34349792D01*
X21230106Y-34349788D01*
X21230109Y-34349786D01*
X21355048Y-34177820D01*
X21355047Y-34177820D01*
X21355051Y-34177816D01*
X21355053Y-34177810D01*
X21375445Y-34149744D01*
X21383730Y-34121529D01*
X21451557Y-33988412D01*
X21517246Y-33786243D01*
X21550500Y-33576287D01*
X21550500Y-33363713D01*
X21517246Y-33153757D01*
X21517244Y-33153751D01*
X21516109Y-33149022D01*
X21518168Y-33148527D01*
X21516400Y-33087550D01*
X21548659Y-33031339D01*
X21579998Y-33000000D01*
X21580000Y-33000000D01*
X21580000Y-31400000D01*
X21548659Y-31368659D01*
X21515174Y-31307336D01*
X21517990Y-31251429D01*
X21516109Y-31250978D01*
X21517245Y-31246245D01*
X21517246Y-31246243D01*
X21550500Y-31036287D01*
X21550500Y-30823713D01*
X21517246Y-30613757D01*
X21451557Y-30411588D01*
X21355051Y-30222184D01*
X21355049Y-30222181D01*
X21355048Y-30222179D01*
X21354702Y-30221703D01*
X21354700Y-30221699D01*
X21230112Y-30050216D01*
X21079782Y-29899886D01*
X20907824Y-29774953D01*
X20907258Y-29774606D01*
X20905627Y-29773357D01*
X20903901Y-29772103D01*
X20903932Y-29772059D01*
X20886960Y-29759062D01*
X20876683Y-29749357D01*
X20841457Y-29689017D01*
X20844445Y-29619212D01*
X20880612Y-29565495D01*
X20887783Y-29559281D01*
X20904194Y-29547269D01*
X20907792Y-29545063D01*
X20907816Y-29545051D01*
X20969136Y-29500500D01*
X20976196Y-29495371D01*
X20990595Y-29484908D01*
X21079786Y-29420109D01*
X21079788Y-29420106D01*
X21079792Y-29420104D01*
X21079796Y-29420099D01*
X21079848Y-29420062D01*
X21080592Y-29419303D01*
X21230104Y-29269792D01*
X21230106Y-29269788D01*
X21230109Y-29269786D01*
X21355048Y-29097820D01*
X21355047Y-29097820D01*
X21355051Y-29097816D01*
X21355053Y-29097810D01*
X21375445Y-29069744D01*
X21383730Y-29041529D01*
X21451557Y-28908412D01*
X21517246Y-28706243D01*
X21550500Y-28496287D01*
X21550500Y-28283713D01*
X21517246Y-28073757D01*
X21451557Y-27871588D01*
X21355051Y-27682184D01*
X21355049Y-27682181D01*
X21355048Y-27682179D01*
X21354702Y-27681703D01*
X21354700Y-27681699D01*
X21230112Y-27510216D01*
X21079782Y-27359886D01*
X20907824Y-27234953D01*
X20907258Y-27234606D01*
X20905627Y-27233357D01*
X20903901Y-27232103D01*
X20903932Y-27232059D01*
X20886960Y-27219062D01*
X20876683Y-27209357D01*
X20841457Y-27149017D01*
X20844445Y-27079212D01*
X20880613Y-27025493D01*
X20887783Y-27019281D01*
X20904187Y-27007275D01*
X20907816Y-27005051D01*
X20907817Y-27005050D01*
X20929789Y-26989086D01*
X21079786Y-26880109D01*
X21079787Y-26880106D01*
X21079790Y-26880105D01*
X21079792Y-26880104D01*
X21079793Y-26880102D01*
X21079847Y-26880063D01*
X21080605Y-26879290D01*
X21230104Y-26729792D01*
X21230106Y-26729788D01*
X21230109Y-26729786D01*
X21355048Y-26557820D01*
X21355047Y-26557820D01*
X21355051Y-26557816D01*
X21355053Y-26557810D01*
X21375445Y-26529744D01*
X21383730Y-26501529D01*
X21451557Y-26368412D01*
X21517246Y-26166243D01*
X21550500Y-25956287D01*
X21550500Y-25743713D01*
X21517246Y-25533757D01*
X21451557Y-25331588D01*
X21355051Y-25142184D01*
X21355049Y-25142181D01*
X21355048Y-25142179D01*
X21354702Y-25141703D01*
X21354700Y-25141699D01*
X21230112Y-24970216D01*
X21079782Y-24819886D01*
X20907824Y-24694953D01*
X20907258Y-24694606D01*
X20905627Y-24693357D01*
X20903901Y-24692103D01*
X20903932Y-24692059D01*
X20886960Y-24679062D01*
X20876683Y-24669357D01*
X20841457Y-24609017D01*
X20844445Y-24539212D01*
X20880613Y-24485493D01*
X20887783Y-24479281D01*
X20904187Y-24467275D01*
X20907816Y-24465051D01*
X20907817Y-24465050D01*
X20929789Y-24449086D01*
X21079786Y-24340109D01*
X21079787Y-24340106D01*
X21079790Y-24340105D01*
X21079792Y-24340104D01*
X21079793Y-24340102D01*
X21079847Y-24340063D01*
X21080605Y-24339290D01*
X21230104Y-24189792D01*
X21230106Y-24189788D01*
X21230109Y-24189786D01*
X21355048Y-24017820D01*
X21355047Y-24017820D01*
X21355051Y-24017816D01*
X21355053Y-24017810D01*
X21375445Y-23989744D01*
X21383730Y-23961529D01*
X21451557Y-23828412D01*
X21517246Y-23626243D01*
X21550500Y-23416287D01*
X21550500Y-23203713D01*
X21517246Y-22993757D01*
X21451557Y-22791588D01*
X21355051Y-22602184D01*
X21355049Y-22602181D01*
X21355048Y-22602179D01*
X21354702Y-22601703D01*
X21354700Y-22601699D01*
X21265445Y-22478848D01*
X25349499Y-22478848D01*
X25380257Y-22633471D01*
X25380264Y-22633502D01*
X25440598Y-22779165D01*
X25440602Y-22779172D01*
X25440609Y-22779185D01*
X25518697Y-22896050D01*
X25533928Y-22927886D01*
X25543834Y-22959522D01*
X25549500Y-22996575D01*
X25549500Y-28102404D01*
X25544476Y-28137341D01*
X25535136Y-28169148D01*
X25519262Y-28203102D01*
X25440613Y-28320807D01*
X25440603Y-28320824D01*
X25440598Y-28320833D01*
X25380264Y-28466496D01*
X25380257Y-28466527D01*
X25349500Y-28621150D01*
X25349500Y-28778846D01*
X25380257Y-28933471D01*
X25380264Y-28933502D01*
X25440598Y-29079165D01*
X25440603Y-29079174D01*
X25440613Y-29079191D01*
X25528211Y-29210290D01*
X25528212Y-29210291D01*
X25528217Y-29210297D01*
X25639701Y-29321781D01*
X25639707Y-29321786D01*
X25639711Y-29321789D01*
X25770814Y-29409390D01*
X25770827Y-29409397D01*
X25916498Y-29469735D01*
X25916503Y-29469737D01*
X26045368Y-29495370D01*
X26071153Y-29500499D01*
X26071156Y-29500500D01*
X26111205Y-29500500D01*
X26114741Y-29500702D01*
X26118566Y-29502066D01*
X26142606Y-29505523D01*
X26157604Y-29509927D01*
X26178830Y-29523563D01*
X26180549Y-29524177D01*
X26181299Y-29525150D01*
X26216355Y-29547672D01*
X26217542Y-29549041D01*
X26245018Y-29603902D01*
X26246663Y-29611460D01*
X26249500Y-29637831D01*
X26249500Y-29678846D01*
X26249500Y-29678848D01*
X26249499Y-29678848D01*
X26280257Y-29833471D01*
X26280264Y-29833502D01*
X26340598Y-29979165D01*
X26340603Y-29979174D01*
X26340613Y-29979191D01*
X26428209Y-30110287D01*
X26428212Y-30110291D01*
X26428217Y-30110297D01*
X26539701Y-30221781D01*
X26539707Y-30221786D01*
X26539711Y-30221789D01*
X26670814Y-30309390D01*
X26670827Y-30309397D01*
X26816498Y-30369735D01*
X26816503Y-30369737D01*
X26971153Y-30400499D01*
X26971156Y-30400500D01*
X27066272Y-30400500D01*
X27068193Y-30400560D01*
X27070890Y-30401444D01*
X27099258Y-30405523D01*
X27114256Y-30409927D01*
X27132477Y-30421637D01*
X27134585Y-30422328D01*
X27135715Y-30423717D01*
X27173030Y-30447698D01*
X27177842Y-30453251D01*
X27205749Y-30510265D01*
X27230259Y-30633484D01*
X27230260Y-30633488D01*
X27230261Y-30633491D01*
X27230264Y-30633501D01*
X27230267Y-30633509D01*
X27230272Y-30633523D01*
X27290598Y-30779165D01*
X27290603Y-30779174D01*
X27290613Y-30779191D01*
X27378211Y-30910290D01*
X27378212Y-30910291D01*
X27378217Y-30910297D01*
X27489701Y-31021781D01*
X27489707Y-31021786D01*
X27489711Y-31021789D01*
X27620814Y-31109390D01*
X27620827Y-31109397D01*
X27766498Y-31169735D01*
X27766503Y-31169737D01*
X27921153Y-31200499D01*
X27921156Y-31200500D01*
X27921158Y-31200500D01*
X28078844Y-31200500D01*
X28078845Y-31200499D01*
X28233497Y-31169737D01*
X28379179Y-31109394D01*
X28510289Y-31021789D01*
X28621789Y-30910289D01*
X28709394Y-30779179D01*
X28769737Y-30633497D01*
X28800500Y-30478842D01*
X28800500Y-30321158D01*
X28800500Y-30321155D01*
X28800499Y-30321153D01*
X28798159Y-30309390D01*
X28769737Y-30166503D01*
X28746452Y-30110288D01*
X28709397Y-30020827D01*
X28709390Y-30020814D01*
X28709379Y-30020797D01*
X28631304Y-29903949D01*
X28616071Y-29872111D01*
X28606165Y-29840474D01*
X28600500Y-29803422D01*
X28600500Y-28178848D01*
X39099499Y-28178848D01*
X39130257Y-28333471D01*
X39130264Y-28333502D01*
X39185387Y-28466582D01*
X39192443Y-28489839D01*
X39197117Y-28513339D01*
X39199500Y-28537528D01*
X39199500Y-32662471D01*
X39197117Y-32686666D01*
X39192443Y-32710160D01*
X39185387Y-32733417D01*
X39130264Y-32866496D01*
X39130257Y-32866527D01*
X39099500Y-33021150D01*
X39099500Y-33178847D01*
X39130257Y-33333471D01*
X39130264Y-33333502D01*
X39190598Y-33479165D01*
X39190603Y-33479174D01*
X39190613Y-33479191D01*
X39278211Y-33610290D01*
X39278212Y-33610291D01*
X39278217Y-33610297D01*
X39389701Y-33721781D01*
X39389707Y-33721786D01*
X39389711Y-33721789D01*
X39520814Y-33809390D01*
X39520827Y-33809397D01*
X39666498Y-33869735D01*
X39666503Y-33869737D01*
X39821153Y-33900499D01*
X39821156Y-33900500D01*
X39821158Y-33900500D01*
X39978844Y-33900500D01*
X39978845Y-33900499D01*
X40133497Y-33869737D01*
X40279179Y-33809394D01*
X40410289Y-33721789D01*
X40521789Y-33610289D01*
X40609394Y-33479179D01*
X40669737Y-33333497D01*
X40700500Y-33178842D01*
X40700500Y-33021158D01*
X40700500Y-33021155D01*
X40700500Y-33020971D01*
X40700064Y-33018966D01*
X40669739Y-32866510D01*
X40669736Y-32866501D01*
X40669734Y-32866496D01*
X40614610Y-32733414D01*
X40607557Y-32710160D01*
X40602881Y-32686658D01*
X40600500Y-32662471D01*
X40600500Y-28537528D01*
X40602882Y-28513340D01*
X40607557Y-28489834D01*
X40614609Y-28466588D01*
X40668054Y-28337557D01*
X40669221Y-28335001D01*
X40669730Y-28333510D01*
X40669735Y-28333501D01*
X40669737Y-28333497D01*
X40692835Y-28217375D01*
X40700500Y-28178844D01*
X40700500Y-28020973D01*
X40700065Y-28018972D01*
X40670750Y-27871600D01*
X40670750Y-27871592D01*
X40670749Y-27871593D01*
X40670739Y-27871543D01*
X40669737Y-27866503D01*
X40669735Y-27866498D01*
X40609397Y-27720827D01*
X40609390Y-27720814D01*
X40521789Y-27589711D01*
X40521786Y-27589707D01*
X40521781Y-27589701D01*
X40410297Y-27478217D01*
X40410291Y-27478212D01*
X40410290Y-27478211D01*
X40279191Y-27390613D01*
X40279190Y-27390612D01*
X40279185Y-27390609D01*
X40279172Y-27390602D01*
X40279165Y-27390598D01*
X40133502Y-27330264D01*
X40133471Y-27330257D01*
X39978847Y-27299500D01*
X39978845Y-27299500D01*
X39978842Y-27299500D01*
X39821158Y-27299500D01*
X39821155Y-27299500D01*
X39821153Y-27299500D01*
X39666527Y-27330257D01*
X39666496Y-27330264D01*
X39520833Y-27390598D01*
X39520824Y-27390603D01*
X39520807Y-27390613D01*
X39389708Y-27478211D01*
X39389707Y-27478212D01*
X39389701Y-27478217D01*
X39278217Y-27589701D01*
X39278212Y-27589707D01*
X39278211Y-27589708D01*
X39190613Y-27720807D01*
X39190603Y-27720824D01*
X39190598Y-27720833D01*
X39130264Y-27866496D01*
X39130257Y-27866527D01*
X39099500Y-28021150D01*
X39099500Y-28021153D01*
X39099500Y-28178846D01*
X39099500Y-28178848D01*
X39099499Y-28178848D01*
X28600500Y-28178848D01*
X28600500Y-24597594D01*
X28605522Y-24562661D01*
X28608951Y-24550983D01*
X28614864Y-24530845D01*
X28630733Y-24496902D01*
X28706450Y-24383584D01*
X28708468Y-24380827D01*
X28709978Y-24378426D01*
X28711710Y-24373585D01*
X28769737Y-24233497D01*
X28800500Y-24078842D01*
X28800500Y-23921158D01*
X28800500Y-23921155D01*
X28800500Y-23920971D01*
X28800064Y-23918966D01*
X28782052Y-23828414D01*
X28769738Y-23766510D01*
X28769737Y-23766503D01*
X28711641Y-23626245D01*
X28709397Y-23620827D01*
X28709390Y-23620814D01*
X28621789Y-23489711D01*
X28621786Y-23489707D01*
X28621781Y-23489701D01*
X28510297Y-23378217D01*
X28510291Y-23378212D01*
X28510290Y-23378211D01*
X28379191Y-23290613D01*
X28379190Y-23290612D01*
X28379185Y-23290609D01*
X28379172Y-23290602D01*
X28379165Y-23290598D01*
X28233502Y-23230264D01*
X28233471Y-23230257D01*
X28078847Y-23199500D01*
X28078845Y-23199500D01*
X28078842Y-23199500D01*
X27985678Y-23199500D01*
X27950737Y-23194475D01*
X27935738Y-23190070D01*
X27876969Y-23152301D01*
X27872157Y-23146748D01*
X27844250Y-23089734D01*
X27819498Y-22965301D01*
X27817416Y-22960901D01*
X27796453Y-22910289D01*
X27759397Y-22820827D01*
X27759390Y-22820814D01*
X27671789Y-22689711D01*
X27671786Y-22689707D01*
X27671781Y-22689701D01*
X27560297Y-22578217D01*
X27560291Y-22578212D01*
X27560290Y-22578211D01*
X27429191Y-22490613D01*
X27429190Y-22490612D01*
X27429185Y-22490609D01*
X27429172Y-22490602D01*
X27429165Y-22490598D01*
X27283502Y-22430264D01*
X27283471Y-22430257D01*
X27128847Y-22399500D01*
X27128845Y-22399500D01*
X27128842Y-22399500D01*
X27085678Y-22399500D01*
X27050737Y-22394475D01*
X27035738Y-22390070D01*
X26976969Y-22352301D01*
X26972157Y-22346748D01*
X26944250Y-22289734D01*
X26937824Y-22257432D01*
X26919738Y-22166508D01*
X26919737Y-22166507D01*
X26919498Y-22165302D01*
X26917411Y-22160889D01*
X26914840Y-22154681D01*
X26859397Y-22020827D01*
X26859390Y-22020814D01*
X26771789Y-21889711D01*
X26771786Y-21889707D01*
X26771781Y-21889701D01*
X26660297Y-21778217D01*
X26660291Y-21778212D01*
X26660290Y-21778211D01*
X26529191Y-21690613D01*
X26529190Y-21690612D01*
X26529185Y-21690609D01*
X26529172Y-21690602D01*
X26529165Y-21690598D01*
X26383502Y-21630264D01*
X26383471Y-21630257D01*
X26228847Y-21599500D01*
X26228845Y-21599500D01*
X26228842Y-21599500D01*
X26071158Y-21599500D01*
X26071155Y-21599500D01*
X26071153Y-21599500D01*
X25916527Y-21630257D01*
X25916496Y-21630264D01*
X25770833Y-21690598D01*
X25770824Y-21690603D01*
X25770807Y-21690613D01*
X25639708Y-21778211D01*
X25639707Y-21778212D01*
X25639701Y-21778217D01*
X25528217Y-21889701D01*
X25528212Y-21889707D01*
X25528211Y-21889708D01*
X25440613Y-22020807D01*
X25440603Y-22020824D01*
X25440598Y-22020833D01*
X25380264Y-22166496D01*
X25380257Y-22166527D01*
X25349500Y-22321150D01*
X25349500Y-22321153D01*
X25349500Y-22478846D01*
X25349500Y-22478848D01*
X25349499Y-22478848D01*
X21265445Y-22478848D01*
X21230112Y-22430216D01*
X21129176Y-22329280D01*
X21108027Y-22301030D01*
X21101372Y-22288842D01*
X21097582Y-22271421D01*
X21095691Y-22267957D01*
X21095972Y-22264019D01*
X21086521Y-22220572D01*
X21110935Y-22155111D01*
X21113698Y-22151420D01*
X21169621Y-22109562D01*
X21292331Y-22063796D01*
X21292922Y-22063354D01*
X21407543Y-21977548D01*
X21407546Y-21977546D01*
X21493796Y-21862331D01*
X21544091Y-21727483D01*
X21550500Y-21667873D01*
X21550499Y-19872128D01*
X21544091Y-19812517D01*
X21493887Y-19677913D01*
X21493864Y-19677850D01*
X21493800Y-19677678D01*
X21493796Y-19677669D01*
X21493795Y-19677668D01*
X21493793Y-19677664D01*
X21407815Y-19562813D01*
X21407548Y-19562456D01*
X21407542Y-19562450D01*
X21349616Y-19519086D01*
X21292335Y-19476206D01*
X21292332Y-19476204D01*
X21292330Y-19476203D01*
X21292328Y-19476202D01*
X21157482Y-19425908D01*
X21157483Y-19425908D01*
X21097883Y-19419501D01*
X21097881Y-19419500D01*
X21097873Y-19419500D01*
X21097864Y-19419500D01*
X21096841Y-19419500D01*
X19302123Y-19419500D01*
X19300192Y-19419659D01*
X19298545Y-19419885D01*
X19242516Y-19425908D01*
X19107666Y-19476204D01*
X19107665Y-19476205D01*
X18992456Y-19562450D01*
X18992450Y-19562456D01*
X18906205Y-19677665D01*
X18906203Y-19677668D01*
X18855908Y-19812516D01*
X18849500Y-19872125D01*
X18849500Y-21667876D01*
X18849659Y-21669806D01*
X18849885Y-21671454D01*
X18855907Y-21727482D01*
X18883690Y-21801971D01*
X18906202Y-21862328D01*
X18906206Y-21862335D01*
X18926697Y-21889707D01*
X18992450Y-21977542D01*
X18992452Y-21977544D01*
X18992455Y-21977547D01*
X19107664Y-22063793D01*
X19107671Y-22063797D01*
X19222376Y-22106579D01*
X19253351Y-22123491D01*
X19263950Y-22131426D01*
X19264461Y-22131808D01*
X19306334Y-22187740D01*
X19311321Y-22257432D01*
X19311318Y-22257445D01*
X19310342Y-22261930D01*
X19276860Y-22323244D01*
X19169886Y-22430218D01*
X19044949Y-22602182D01*
X18948445Y-22791582D01*
X18882752Y-22993763D01*
X18861648Y-23127011D01*
X18849500Y-23203708D01*
X18849500Y-23416286D01*
X18882754Y-23626244D01*
X18928326Y-23766502D01*
X18948441Y-23828406D01*
X18948443Y-23828412D01*
X19030645Y-23989744D01*
X19044951Y-24017820D01*
X19169890Y-24189786D01*
X19320213Y-24340109D01*
X19492182Y-24465050D01*
X19492190Y-24465054D01*
X19492693Y-24465363D01*
X19494174Y-24466496D01*
X19496122Y-24467912D01*
X19496086Y-24467960D01*
X19513034Y-24480934D01*
X19523315Y-24490643D01*
X19558541Y-24550983D01*
X19555552Y-24620789D01*
X19519383Y-24674507D01*
X19512227Y-24680708D01*
X19495814Y-24692723D01*
X19492190Y-24694943D01*
X19320210Y-24819892D01*
X19169892Y-24970210D01*
X19044949Y-25142182D01*
X18948445Y-25331580D01*
X18882752Y-25533759D01*
X18849500Y-25743707D01*
X18849500Y-25956291D01*
X18882752Y-26166239D01*
X18948445Y-26368418D01*
X19041532Y-26551111D01*
X19044951Y-26557820D01*
X19169890Y-26729786D01*
X19320213Y-26880109D01*
X19492182Y-27005050D01*
X19492190Y-27005054D01*
X19492693Y-27005363D01*
X19494174Y-27006496D01*
X19496122Y-27007912D01*
X19496086Y-27007960D01*
X19513034Y-27020934D01*
X19523315Y-27030643D01*
X19558541Y-27090983D01*
X19555552Y-27160789D01*
X19519383Y-27214507D01*
X19512227Y-27220708D01*
X19495814Y-27232723D01*
X19492190Y-27234943D01*
X19320210Y-27359892D01*
X19169892Y-27510210D01*
X19044949Y-27682182D01*
X18948445Y-27871580D01*
X18882752Y-28073759D01*
X18849500Y-28283707D01*
X18849500Y-28496286D01*
X18882754Y-28706244D01*
X18906344Y-28778845D01*
X18948445Y-28908418D01*
X19035446Y-29079165D01*
X19044951Y-29097820D01*
X19169890Y-29269786D01*
X19320213Y-29420109D01*
X19492182Y-29545050D01*
X19492190Y-29545054D01*
X19492693Y-29545363D01*
X19494174Y-29546496D01*
X19496122Y-29547912D01*
X19496086Y-29547960D01*
X19513034Y-29560934D01*
X19523315Y-29570643D01*
X19558541Y-29630983D01*
X19555552Y-29700789D01*
X19519383Y-29754507D01*
X19512227Y-29760708D01*
X19495814Y-29772723D01*
X19492190Y-29774943D01*
X19320210Y-29899892D01*
X19169892Y-30050210D01*
X19126241Y-30110291D01*
X19045235Y-30221789D01*
X19044949Y-30222182D01*
X18948445Y-30411580D01*
X18882752Y-30613759D01*
X18849500Y-30823707D01*
X18849500Y-31036291D01*
X18882753Y-31246245D01*
X18882951Y-31247067D01*
X18882934Y-31247388D01*
X18883515Y-31251051D01*
X18882745Y-31251172D01*
X18879453Y-31316849D01*
X18838782Y-31373662D01*
X18773853Y-31399468D01*
X18762374Y-31400000D01*
X17637625Y-31400000D01*
X17570586Y-31380315D01*
X17524831Y-31327511D01*
X17514887Y-31258353D01*
X17517053Y-31247047D01*
X17517246Y-31246242D01*
X17517247Y-31246239D01*
X17550500Y-31036287D01*
X17550500Y-30823713D01*
X17517246Y-30613757D01*
X17451557Y-30411588D01*
X17355051Y-30222184D01*
X17355049Y-30222181D01*
X17355048Y-30222179D01*
X17354702Y-30221703D01*
X17354700Y-30221699D01*
X17230112Y-30050216D01*
X17079782Y-29899886D01*
X16907824Y-29774953D01*
X16907258Y-29774606D01*
X16905627Y-29773357D01*
X16903901Y-29772103D01*
X16903932Y-29772059D01*
X16886960Y-29759062D01*
X16876683Y-29749357D01*
X16841457Y-29689017D01*
X16844445Y-29619212D01*
X16880612Y-29565495D01*
X16887783Y-29559281D01*
X16904194Y-29547269D01*
X16907792Y-29545063D01*
X16907816Y-29545051D01*
X16969136Y-29500500D01*
X16976196Y-29495371D01*
X16990595Y-29484908D01*
X17079786Y-29420109D01*
X17079788Y-29420106D01*
X17079792Y-29420104D01*
X17079796Y-29420099D01*
X17079848Y-29420062D01*
X17080592Y-29419303D01*
X17230104Y-29269792D01*
X17230106Y-29269788D01*
X17230109Y-29269786D01*
X17355048Y-29097820D01*
X17355047Y-29097820D01*
X17355051Y-29097816D01*
X17355053Y-29097810D01*
X17375445Y-29069744D01*
X17383730Y-29041529D01*
X17451557Y-28908412D01*
X17517246Y-28706243D01*
X17550500Y-28496287D01*
X17550500Y-28283713D01*
X17517246Y-28073757D01*
X17451557Y-27871588D01*
X17355051Y-27682184D01*
X17355049Y-27682181D01*
X17355048Y-27682179D01*
X17354702Y-27681703D01*
X17354700Y-27681699D01*
X17230112Y-27510216D01*
X17079782Y-27359886D01*
X16907824Y-27234953D01*
X16907258Y-27234606D01*
X16905627Y-27233357D01*
X16903901Y-27232103D01*
X16903932Y-27232059D01*
X16886960Y-27219062D01*
X16876683Y-27209357D01*
X16841457Y-27149017D01*
X16844445Y-27079212D01*
X16880613Y-27025493D01*
X16887783Y-27019281D01*
X16904187Y-27007275D01*
X16907816Y-27005051D01*
X16907817Y-27005050D01*
X16929789Y-26989086D01*
X17079786Y-26880109D01*
X17079787Y-26880106D01*
X17079790Y-26880105D01*
X17079792Y-26880104D01*
X17079793Y-26880102D01*
X17079847Y-26880063D01*
X17080605Y-26879290D01*
X17230104Y-26729792D01*
X17230106Y-26729788D01*
X17230109Y-26729786D01*
X17355048Y-26557820D01*
X17355047Y-26557820D01*
X17355051Y-26557816D01*
X17355053Y-26557810D01*
X17375445Y-26529744D01*
X17383730Y-26501529D01*
X17451557Y-26368412D01*
X17517246Y-26166243D01*
X17550500Y-25956287D01*
X17550500Y-25743713D01*
X17517246Y-25533757D01*
X17451557Y-25331588D01*
X17355051Y-25142184D01*
X17355049Y-25142181D01*
X17355048Y-25142179D01*
X17354702Y-25141703D01*
X17354700Y-25141699D01*
X17230112Y-24970216D01*
X17079782Y-24819886D01*
X16907824Y-24694953D01*
X16907258Y-24694606D01*
X16905627Y-24693357D01*
X16903901Y-24692103D01*
X16903932Y-24692059D01*
X16886960Y-24679062D01*
X16876683Y-24669357D01*
X16841457Y-24609017D01*
X16844445Y-24539212D01*
X16880613Y-24485493D01*
X16887783Y-24479281D01*
X16904187Y-24467275D01*
X16907816Y-24465051D01*
X16907817Y-24465050D01*
X16929789Y-24449086D01*
X17079786Y-24340109D01*
X17079787Y-24340106D01*
X17079790Y-24340105D01*
X17079792Y-24340104D01*
X17079793Y-24340102D01*
X17079847Y-24340063D01*
X17080605Y-24339290D01*
X17230104Y-24189792D01*
X17230106Y-24189788D01*
X17230109Y-24189786D01*
X17355048Y-24017820D01*
X17355047Y-24017820D01*
X17355051Y-24017816D01*
X17355053Y-24017810D01*
X17375445Y-23989744D01*
X17383730Y-23961529D01*
X17451557Y-23828412D01*
X17517246Y-23626243D01*
X17550500Y-23416287D01*
X17550500Y-23203713D01*
X17517246Y-22993757D01*
X17451557Y-22791588D01*
X17355051Y-22602184D01*
X17355049Y-22602181D01*
X17355048Y-22602179D01*
X17354702Y-22601703D01*
X17354700Y-22601699D01*
X17230112Y-22430216D01*
X17129176Y-22329280D01*
X17108027Y-22301030D01*
X17101372Y-22288842D01*
X17086521Y-22220572D01*
X17110935Y-22155111D01*
X17113698Y-22151420D01*
X17169621Y-22109562D01*
X17292331Y-22063796D01*
X17292922Y-22063354D01*
X17407543Y-21977548D01*
X17407546Y-21977546D01*
X17493796Y-21862331D01*
X17544091Y-21727483D01*
X17550500Y-21667873D01*
X17550499Y-19872128D01*
X17544091Y-19812517D01*
X17493887Y-19677913D01*
X17493864Y-19677850D01*
X17493800Y-19677678D01*
X17493796Y-19677669D01*
X17493795Y-19677668D01*
X17493793Y-19677664D01*
X17407815Y-19562813D01*
X17407548Y-19562456D01*
X17407542Y-19562450D01*
X17349616Y-19519086D01*
X17292335Y-19476206D01*
X17292332Y-19476204D01*
X17292330Y-19476203D01*
X17292328Y-19476202D01*
X17157482Y-19425908D01*
X17157483Y-19425908D01*
X17097883Y-19419501D01*
X17097881Y-19419500D01*
X17097873Y-19419500D01*
X17097864Y-19419500D01*
X17096841Y-19419500D01*
X15302123Y-19419500D01*
X15300192Y-19419659D01*
X15298545Y-19419885D01*
X15242516Y-19425908D01*
X15107666Y-19476204D01*
X15107665Y-19476205D01*
X14992456Y-19562450D01*
X14992450Y-19562456D01*
X14906205Y-19677665D01*
X14906203Y-19677668D01*
X14855908Y-19812516D01*
X14849500Y-19872125D01*
X14849500Y-21667876D01*
X14849659Y-21669806D01*
X14849885Y-21671454D01*
X14855907Y-21727482D01*
X14883690Y-21801971D01*
X14906202Y-21862328D01*
X14906206Y-21862335D01*
X14926697Y-21889707D01*
X14992450Y-21977542D01*
X14992452Y-21977544D01*
X14992455Y-21977547D01*
X15107664Y-22063793D01*
X15107671Y-22063797D01*
X15222376Y-22106579D01*
X15253351Y-22123491D01*
X15263950Y-22131426D01*
X15264461Y-22131808D01*
X15306334Y-22187740D01*
X15311321Y-22257432D01*
X15311318Y-22257445D01*
X15310342Y-22261930D01*
X15276860Y-22323244D01*
X15169886Y-22430218D01*
X15044949Y-22602182D01*
X14948445Y-22791582D01*
X14882752Y-22993763D01*
X14861648Y-23127011D01*
X14849500Y-23203708D01*
X14849500Y-23416286D01*
X14882754Y-23626244D01*
X14928326Y-23766502D01*
X14948441Y-23828406D01*
X14948443Y-23828412D01*
X15030645Y-23989744D01*
X15044951Y-24017820D01*
X15169890Y-24189786D01*
X15320213Y-24340109D01*
X15492182Y-24465050D01*
X15492190Y-24465054D01*
X15492693Y-24465363D01*
X15494174Y-24466496D01*
X15496122Y-24467912D01*
X15496086Y-24467960D01*
X15513034Y-24480934D01*
X15523315Y-24490643D01*
X15558541Y-24550983D01*
X15555552Y-24620789D01*
X15519383Y-24674507D01*
X15512227Y-24680708D01*
X15495814Y-24692723D01*
X15492190Y-24694943D01*
X15320210Y-24819892D01*
X15169892Y-24970210D01*
X15044949Y-25142182D01*
X14948445Y-25331580D01*
X14882752Y-25533759D01*
X14849500Y-25743707D01*
X14849500Y-25956291D01*
X14882752Y-26166239D01*
X14948445Y-26368418D01*
X15041532Y-26551111D01*
X15044951Y-26557820D01*
X15169890Y-26729786D01*
X15320213Y-26880109D01*
X15492182Y-27005050D01*
X15492190Y-27005054D01*
X15492693Y-27005363D01*
X15494174Y-27006496D01*
X15496122Y-27007912D01*
X15496086Y-27007960D01*
X15513034Y-27020934D01*
X15523315Y-27030643D01*
X15558541Y-27090983D01*
X15555552Y-27160789D01*
X15519383Y-27214507D01*
X15512227Y-27220708D01*
X15495814Y-27232723D01*
X15492190Y-27234943D01*
X15320210Y-27359892D01*
X15169892Y-27510210D01*
X15044949Y-27682182D01*
X14948445Y-27871580D01*
X14882752Y-28073759D01*
X14849500Y-28283707D01*
X14849500Y-28496286D01*
X14882754Y-28706244D01*
X14906344Y-28778845D01*
X14948445Y-28908418D01*
X15035446Y-29079165D01*
X15044951Y-29097820D01*
X15169890Y-29269786D01*
X15320213Y-29420109D01*
X15492182Y-29545050D01*
X15492190Y-29545054D01*
X15492693Y-29545363D01*
X15494174Y-29546496D01*
X15496122Y-29547912D01*
X15496086Y-29547960D01*
X15513034Y-29560934D01*
X15523315Y-29570643D01*
X15558541Y-29630983D01*
X15555552Y-29700789D01*
X15519383Y-29754507D01*
X15512227Y-29760708D01*
X15495814Y-29772723D01*
X15492190Y-29774943D01*
X15320210Y-29899892D01*
X15169892Y-30050210D01*
X15126241Y-30110291D01*
X15045235Y-30221789D01*
X15044949Y-30222182D01*
X14948445Y-30411580D01*
X14882752Y-30613759D01*
X14849500Y-30823707D01*
X14849500Y-31036291D01*
X14882753Y-31246245D01*
X14882951Y-31247067D01*
X14882934Y-31247388D01*
X14883515Y-31251051D01*
X14882745Y-31251172D01*
X14879453Y-31316849D01*
X14838782Y-31373662D01*
X14773853Y-31399468D01*
X14762374Y-31400000D01*
X14624500Y-31400000D01*
X14557461Y-31380315D01*
X14511706Y-31327511D01*
X14500500Y-31276000D01*
X14500500Y-16693753D01*
X14850000Y-16693753D01*
X14850000Y-16906246D01*
X14875860Y-17069519D01*
X14881715Y-17106485D01*
X14881716Y-17106493D01*
X14883242Y-17116133D01*
X14917886Y-17222754D01*
X14948904Y-17318217D01*
X15034560Y-17486325D01*
X15045374Y-17507548D01*
X15045375Y-17507550D01*
X15080674Y-17556137D01*
X15084728Y-17561716D01*
X15590297Y-17056147D01*
X15651619Y-17022663D01*
X15721311Y-17027647D01*
X15777244Y-17069519D01*
X15785363Y-17081828D01*
X15799896Y-17107000D01*
X15799899Y-17107004D01*
X15799901Y-17107007D01*
X15892993Y-17200099D01*
X15918169Y-17214634D01*
X15966384Y-17265202D01*
X15979606Y-17333809D01*
X15953638Y-17398673D01*
X15943849Y-17409702D01*
X15438282Y-17915268D01*
X15438282Y-17915269D01*
X15438282Y-17915270D01*
X15492449Y-17954624D01*
X15681782Y-18051095D01*
X15681784Y-18051096D01*
X15883866Y-18116756D01*
X15883867Y-18116756D01*
X15883870Y-18116757D01*
X16093754Y-18150000D01*
X16306245Y-18150000D01*
X16306246Y-18150000D01*
X16419050Y-18132132D01*
X16506487Y-18118284D01*
X16506493Y-18118283D01*
X16516127Y-18116757D01*
X16516130Y-18116757D01*
X16718217Y-18051095D01*
X16907554Y-17954622D01*
X16909976Y-17952862D01*
X16929121Y-17938953D01*
X16955858Y-17929412D01*
X16961717Y-17915269D01*
X16456149Y-17409702D01*
X16422664Y-17348379D01*
X16427648Y-17278688D01*
X16469519Y-17222754D01*
X16481822Y-17214639D01*
X16507007Y-17200099D01*
X16600099Y-17107007D01*
X16614634Y-17081830D01*
X16665199Y-17033616D01*
X16733805Y-17020391D01*
X16798671Y-17046358D01*
X16809702Y-17056149D01*
X17315269Y-17561717D01*
X17315269Y-17561716D01*
X17315270Y-17561717D01*
X17315270Y-17561716D01*
X17328738Y-17556137D01*
X17334955Y-17534968D01*
X17338057Y-17530369D01*
X17338474Y-17529779D01*
X17354622Y-17507555D01*
X17355694Y-17505450D01*
X17359676Y-17499825D01*
X17361521Y-17498365D01*
X17370733Y-17486327D01*
X17380363Y-17476131D01*
X17440703Y-17440907D01*
X17510508Y-17443897D01*
X17564227Y-17480066D01*
X17570297Y-17487071D01*
X17581752Y-17504056D01*
X17582401Y-17503659D01*
X17584944Y-17507809D01*
X17584947Y-17507813D01*
X17584949Y-17507817D01*
X17709890Y-17679786D01*
X17709891Y-17679787D01*
X17709892Y-17679788D01*
X17860216Y-17830112D01*
X18032169Y-17955042D01*
X18032200Y-17955060D01*
X18032442Y-17955182D01*
X18221588Y-18051557D01*
X18423757Y-18117246D01*
X18633713Y-18150500D01*
X18633714Y-18150500D01*
X18846286Y-18150500D01*
X18846287Y-18150500D01*
X19056243Y-18117246D01*
X19258412Y-18051557D01*
X19447816Y-17955051D01*
X19534138Y-17892335D01*
X19619786Y-17830109D01*
X19619788Y-17830106D01*
X19619792Y-17830104D01*
X19619799Y-17830096D01*
X19619849Y-17830061D01*
X19620605Y-17829290D01*
X19770104Y-17679792D01*
X19770106Y-17679788D01*
X19770109Y-17679786D01*
X19895048Y-17507820D01*
X19895050Y-17507817D01*
X19895051Y-17507816D01*
X19895487Y-17506959D01*
X19900653Y-17499652D01*
X19904158Y-17496875D01*
X19911756Y-17486091D01*
X19920647Y-17476678D01*
X19954911Y-17456677D01*
X19955424Y-17456271D01*
X19955644Y-17456249D01*
X19980985Y-17441457D01*
X20050791Y-17444447D01*
X20104503Y-17480612D01*
X20110707Y-17487771D01*
X20122729Y-17504193D01*
X20124949Y-17507817D01*
X20124951Y-17507820D01*
X20249890Y-17679786D01*
X20249891Y-17679787D01*
X20249892Y-17679788D01*
X20400216Y-17830112D01*
X20572169Y-17955042D01*
X20572200Y-17955060D01*
X20572442Y-17955182D01*
X20761588Y-18051557D01*
X20963757Y-18117246D01*
X21173713Y-18150500D01*
X21173714Y-18150500D01*
X21386286Y-18150500D01*
X21386287Y-18150500D01*
X21596243Y-18117246D01*
X21798412Y-18051557D01*
X21987816Y-17955051D01*
X22074138Y-17892335D01*
X22159786Y-17830109D01*
X22159788Y-17830106D01*
X22159792Y-17830104D01*
X22159799Y-17830096D01*
X22159849Y-17830061D01*
X22160605Y-17829290D01*
X22310104Y-17679792D01*
X22310106Y-17679788D01*
X22310109Y-17679786D01*
X22435048Y-17507820D01*
X22435050Y-17507817D01*
X22435051Y-17507816D01*
X22435487Y-17506959D01*
X22440653Y-17499652D01*
X22444158Y-17496875D01*
X22451756Y-17486091D01*
X22460647Y-17476678D01*
X22494911Y-17456677D01*
X22495424Y-17456271D01*
X22495644Y-17456249D01*
X22520985Y-17441457D01*
X22590791Y-17444447D01*
X22644503Y-17480612D01*
X22650707Y-17487771D01*
X22662729Y-17504193D01*
X22664949Y-17507817D01*
X22664951Y-17507820D01*
X22789890Y-17679786D01*
X22789891Y-17679787D01*
X22789892Y-17679788D01*
X22940216Y-17830112D01*
X23112169Y-17955042D01*
X23112200Y-17955060D01*
X23112442Y-17955182D01*
X23301588Y-18051557D01*
X23503757Y-18117246D01*
X23713713Y-18150500D01*
X23713714Y-18150500D01*
X23926286Y-18150500D01*
X23926287Y-18150500D01*
X24136243Y-18117246D01*
X24338412Y-18051557D01*
X24527816Y-17955051D01*
X24699792Y-17830104D01*
X24800725Y-17729169D01*
X24828973Y-17708023D01*
X24841156Y-17701371D01*
X24909427Y-17686521D01*
X24974891Y-17710939D01*
X24974898Y-17710943D01*
X24978571Y-17713693D01*
X25020435Y-17769621D01*
X25066202Y-17892328D01*
X25066206Y-17892335D01*
X25109086Y-17949616D01*
X25152450Y-18007542D01*
X25152452Y-18007544D01*
X25152455Y-18007547D01*
X25267664Y-18093793D01*
X25267671Y-18093797D01*
X25402517Y-18144091D01*
X25402516Y-18144091D01*
X25409444Y-18144835D01*
X25462127Y-18150500D01*
X27257872Y-18150499D01*
X27317483Y-18144091D01*
X27452331Y-18093796D01*
X27567546Y-18007546D01*
X27653796Y-17892331D01*
X27704091Y-17757483D01*
X27710500Y-17697873D01*
X27710499Y-15902139D01*
X48299500Y-15902139D01*
X48299500Y-17697876D01*
X48299659Y-17699806D01*
X48299885Y-17701454D01*
X48305907Y-17757482D01*
X48310435Y-17769621D01*
X48356202Y-17892328D01*
X48356206Y-17892335D01*
X48399086Y-17949616D01*
X48442450Y-18007542D01*
X48442452Y-18007544D01*
X48442455Y-18007547D01*
X48557664Y-18093793D01*
X48557671Y-18093797D01*
X48692517Y-18144091D01*
X48692516Y-18144091D01*
X48699444Y-18144835D01*
X48752127Y-18150500D01*
X50547872Y-18150499D01*
X50607483Y-18144091D01*
X50742331Y-18093796D01*
X50857546Y-18007546D01*
X50943796Y-17892331D01*
X50994091Y-17757483D01*
X50994091Y-17757482D01*
X51000499Y-17697888D01*
X51000499Y-17697882D01*
X51000500Y-17697873D01*
X51000499Y-17697816D01*
X51000504Y-17697796D01*
X51000677Y-17694565D01*
X51000855Y-17694574D01*
X51000856Y-17694568D01*
X51000977Y-17694581D01*
X51001141Y-17694589D01*
X51002808Y-17686199D01*
X51002433Y-17684332D01*
X51006423Y-17668009D01*
X51009935Y-17650341D01*
X51012472Y-17644212D01*
X51013940Y-17641525D01*
X51014802Y-17638587D01*
X51017343Y-17632453D01*
X51028778Y-17618260D01*
X51044224Y-17592219D01*
X51580297Y-17056147D01*
X51641619Y-17022663D01*
X51711311Y-17027647D01*
X51767244Y-17069519D01*
X51775363Y-17081828D01*
X51789896Y-17107000D01*
X51789899Y-17107004D01*
X51789901Y-17107007D01*
X51882993Y-17200099D01*
X51908169Y-17214634D01*
X51956384Y-17265202D01*
X51969606Y-17333809D01*
X51943638Y-17398673D01*
X51933849Y-17409702D01*
X51428282Y-17915268D01*
X51428282Y-17915269D01*
X51428282Y-17915270D01*
X51482449Y-17954624D01*
X51671782Y-18051095D01*
X51671784Y-18051096D01*
X51873866Y-18116756D01*
X51873867Y-18116756D01*
X51873870Y-18116757D01*
X52083754Y-18150000D01*
X52296245Y-18150000D01*
X52296246Y-18150000D01*
X52409050Y-18132132D01*
X52496487Y-18118284D01*
X52496493Y-18118283D01*
X52506127Y-18116757D01*
X52506130Y-18116757D01*
X52708217Y-18051095D01*
X52897554Y-17954622D01*
X52899976Y-17952862D01*
X52919121Y-17938953D01*
X52945858Y-17929412D01*
X52951717Y-17915269D01*
X52446149Y-17409702D01*
X52412664Y-17348379D01*
X52417648Y-17278688D01*
X52459519Y-17222754D01*
X52471822Y-17214639D01*
X52497007Y-17200099D01*
X52590099Y-17107007D01*
X52604634Y-17081830D01*
X52655199Y-17033616D01*
X52723805Y-17020391D01*
X52788671Y-17046358D01*
X52799702Y-17056149D01*
X53305269Y-17561717D01*
X53305269Y-17561716D01*
X53305270Y-17561717D01*
X53305270Y-17561716D01*
X53318738Y-17556137D01*
X53324955Y-17534967D01*
X53328954Y-17529118D01*
X53344429Y-17507820D01*
X53344622Y-17507554D01*
X53441095Y-17318217D01*
X53506757Y-17116130D01*
X53506757Y-17116127D01*
X53540000Y-16906246D01*
X53540000Y-16693753D01*
X53526260Y-16607007D01*
X53508284Y-16493511D01*
X53508283Y-16493505D01*
X53508283Y-16493506D01*
X53506756Y-16483865D01*
X53479473Y-16399898D01*
X53441095Y-16281782D01*
X53344624Y-16092449D01*
X53305270Y-16038282D01*
X53305269Y-16038282D01*
X53305268Y-16038282D01*
X52799702Y-16543849D01*
X52738379Y-16577334D01*
X52668687Y-16572350D01*
X52612754Y-16530478D01*
X52604634Y-16518169D01*
X52590099Y-16492993D01*
X52497007Y-16399901D01*
X52497004Y-16399899D01*
X52497000Y-16399896D01*
X52471828Y-16385363D01*
X52423613Y-16334796D01*
X52410391Y-16266189D01*
X52436359Y-16201324D01*
X52446135Y-16190310D01*
X52951716Y-15684728D01*
X52897550Y-15645375D01*
X52890189Y-15641624D01*
X52708214Y-15548902D01*
X52506130Y-15483242D01*
X52296251Y-15450000D01*
X52296246Y-15450000D01*
X52083754Y-15450000D01*
X52083749Y-15450000D01*
X51883513Y-15481715D01*
X51883505Y-15481715D01*
X51883506Y-15481716D01*
X51873865Y-15483242D01*
X51671784Y-15548903D01*
X51482438Y-15645380D01*
X51428282Y-15684727D01*
X51428282Y-15684728D01*
X51933850Y-16190296D01*
X51967335Y-16251619D01*
X51962351Y-16321311D01*
X51920479Y-16377244D01*
X51908173Y-16385362D01*
X51882996Y-16399898D01*
X51882990Y-16399903D01*
X51789903Y-16492990D01*
X51789898Y-16492996D01*
X51775362Y-16518173D01*
X51724793Y-16566387D01*
X51656185Y-16579607D01*
X51591322Y-16553637D01*
X51580296Y-16543850D01*
X51049425Y-16012979D01*
X51028273Y-15984723D01*
X51015666Y-15961634D01*
X51001313Y-15905401D01*
X51000900Y-15905423D01*
X51000854Y-15905429D01*
X51000853Y-15905426D01*
X51000676Y-15905436D01*
X51000504Y-15902230D01*
X51000499Y-15902209D01*
X51000499Y-15902129D01*
X51000498Y-15902123D01*
X51000497Y-15902116D01*
X50994091Y-15842517D01*
X50992810Y-15839083D01*
X50965926Y-15767002D01*
X50943798Y-15707673D01*
X50943793Y-15707664D01*
X50926623Y-15684728D01*
X50857555Y-15592465D01*
X50857549Y-15592458D01*
X50857547Y-15592455D01*
X50857544Y-15592452D01*
X50857542Y-15592450D01*
X50788641Y-15540871D01*
X50742335Y-15506206D01*
X50742332Y-15506204D01*
X50742330Y-15506203D01*
X50742328Y-15506202D01*
X50607482Y-15455908D01*
X50607483Y-15455908D01*
X50547883Y-15449501D01*
X50547881Y-15449500D01*
X50547873Y-15449500D01*
X50547864Y-15449500D01*
X50546841Y-15449500D01*
X48752123Y-15449500D01*
X48750192Y-15449659D01*
X48748545Y-15449885D01*
X48692516Y-15455908D01*
X48557666Y-15506204D01*
X48557665Y-15506205D01*
X48442456Y-15592450D01*
X48442450Y-15592456D01*
X48356205Y-15707665D01*
X48356203Y-15707668D01*
X48305907Y-15842516D01*
X48299501Y-15902116D01*
X48299500Y-15902139D01*
X27710499Y-15902139D01*
X27710499Y-15902128D01*
X27704091Y-15842517D01*
X27702810Y-15839083D01*
X27653797Y-15707671D01*
X27653793Y-15707664D01*
X27589229Y-15621419D01*
X27567548Y-15592456D01*
X27567542Y-15592450D01*
X27498641Y-15540871D01*
X27452335Y-15506206D01*
X27452332Y-15506204D01*
X27452330Y-15506203D01*
X27452328Y-15506202D01*
X27317482Y-15455908D01*
X27317483Y-15455908D01*
X27257883Y-15449501D01*
X27257881Y-15449500D01*
X27257873Y-15449500D01*
X27257864Y-15449500D01*
X27256841Y-15449500D01*
X25462123Y-15449500D01*
X25460192Y-15449659D01*
X25458545Y-15449885D01*
X25402516Y-15455908D01*
X25267666Y-15506204D01*
X25267665Y-15506205D01*
X25152456Y-15592450D01*
X25152450Y-15592456D01*
X25066208Y-15707661D01*
X25066200Y-15707673D01*
X25023419Y-15822377D01*
X25006503Y-15853355D01*
X24998186Y-15864465D01*
X24942252Y-15906336D01*
X24872568Y-15911321D01*
X24868085Y-15910346D01*
X24806760Y-15876864D01*
X24699788Y-15769892D01*
X24699786Y-15769890D01*
X24527820Y-15644951D01*
X24514167Y-15637994D01*
X24360245Y-15559567D01*
X24360240Y-15559565D01*
X24338414Y-15548444D01*
X24338413Y-15548443D01*
X24338412Y-15548443D01*
X24241550Y-15516970D01*
X24145074Y-15485623D01*
X24140552Y-15483770D01*
X24131362Y-15481600D01*
X24126599Y-15481226D01*
X23974957Y-15457208D01*
X23955489Y-15454124D01*
X23926290Y-15449500D01*
X23926287Y-15449500D01*
X23713713Y-15449500D01*
X23713709Y-15449500D01*
X23674776Y-15455666D01*
X23665042Y-15457208D01*
X23627654Y-15463129D01*
X23503763Y-15482752D01*
X23301582Y-15548445D01*
X23112182Y-15644949D01*
X23112179Y-15644950D01*
X23112179Y-15644951D01*
X23111589Y-15645380D01*
X22940210Y-15769892D01*
X22789892Y-15920210D01*
X22664945Y-16092188D01*
X22664634Y-16092696D01*
X22663499Y-16094177D01*
X22662085Y-16096125D01*
X22662036Y-16096089D01*
X22649060Y-16113041D01*
X22639353Y-16123319D01*
X22579011Y-16158542D01*
X22509205Y-16155550D01*
X22455488Y-16119378D01*
X22449285Y-16112219D01*
X22437274Y-16095811D01*
X22435053Y-16092187D01*
X22435051Y-16092184D01*
X22435050Y-16092182D01*
X22310109Y-15920213D01*
X22159786Y-15769890D01*
X21987820Y-15644951D01*
X21974167Y-15637994D01*
X21820245Y-15559567D01*
X21820240Y-15559565D01*
X21798414Y-15548444D01*
X21798413Y-15548443D01*
X21798412Y-15548443D01*
X21701550Y-15516970D01*
X21605074Y-15485623D01*
X21600552Y-15483770D01*
X21591362Y-15481600D01*
X21586599Y-15481226D01*
X21434957Y-15457208D01*
X21415489Y-15454124D01*
X21386290Y-15449500D01*
X21386287Y-15449500D01*
X21173713Y-15449500D01*
X21173709Y-15449500D01*
X21134776Y-15455666D01*
X21125042Y-15457208D01*
X21087654Y-15463129D01*
X20963763Y-15482752D01*
X20761582Y-15548445D01*
X20572182Y-15644949D01*
X20572179Y-15644950D01*
X20572179Y-15644951D01*
X20571589Y-15645380D01*
X20400210Y-15769892D01*
X20249892Y-15920210D01*
X20124945Y-16092188D01*
X20124634Y-16092696D01*
X20123499Y-16094177D01*
X20122085Y-16096125D01*
X20122036Y-16096089D01*
X20109060Y-16113041D01*
X20099353Y-16123319D01*
X20039011Y-16158542D01*
X19969205Y-16155550D01*
X19915488Y-16119378D01*
X19909285Y-16112219D01*
X19897274Y-16095811D01*
X19895053Y-16092187D01*
X19895051Y-16092184D01*
X19895050Y-16092182D01*
X19770109Y-15920213D01*
X19619786Y-15769890D01*
X19447820Y-15644951D01*
X19434167Y-15637994D01*
X19280245Y-15559567D01*
X19280240Y-15559565D01*
X19258414Y-15548444D01*
X19258413Y-15548443D01*
X19258412Y-15548443D01*
X19161550Y-15516970D01*
X19065074Y-15485623D01*
X19060552Y-15483770D01*
X19051362Y-15481600D01*
X19046599Y-15481226D01*
X18894957Y-15457208D01*
X18875489Y-15454124D01*
X18846290Y-15449500D01*
X18846287Y-15449500D01*
X18633713Y-15449500D01*
X18633709Y-15449500D01*
X18594776Y-15455666D01*
X18585042Y-15457208D01*
X18547654Y-15463129D01*
X18423763Y-15482752D01*
X18221582Y-15548445D01*
X18032182Y-15644949D01*
X18032179Y-15644950D01*
X18032179Y-15644951D01*
X18031589Y-15645380D01*
X17860210Y-15769892D01*
X17709886Y-15920216D01*
X17584943Y-16092187D01*
X17584188Y-16093421D01*
X17568613Y-16113768D01*
X17559070Y-16123872D01*
X17498728Y-16159094D01*
X17428922Y-16156100D01*
X17375211Y-16119934D01*
X17369107Y-16112890D01*
X17357086Y-16096467D01*
X17354628Y-16092457D01*
X17354626Y-16092452D01*
X17315270Y-16038282D01*
X17315268Y-16038282D01*
X16809702Y-16543849D01*
X16748379Y-16577334D01*
X16678687Y-16572350D01*
X16622754Y-16530478D01*
X16614634Y-16518169D01*
X16600099Y-16492993D01*
X16507007Y-16399901D01*
X16507004Y-16399899D01*
X16507000Y-16399896D01*
X16481828Y-16385363D01*
X16433613Y-16334796D01*
X16420391Y-16266189D01*
X16446359Y-16201324D01*
X16456135Y-16190310D01*
X16961716Y-15684728D01*
X16907550Y-15645375D01*
X16900189Y-15641624D01*
X16718214Y-15548902D01*
X16516130Y-15483242D01*
X16306251Y-15450000D01*
X16306246Y-15450000D01*
X16093754Y-15450000D01*
X16093749Y-15450000D01*
X15893513Y-15481715D01*
X15893505Y-15481715D01*
X15893506Y-15481716D01*
X15883865Y-15483242D01*
X15681784Y-15548903D01*
X15492438Y-15645380D01*
X15438282Y-15684727D01*
X15438282Y-15684728D01*
X15943850Y-16190296D01*
X15977335Y-16251619D01*
X15972351Y-16321311D01*
X15930479Y-16377244D01*
X15918173Y-16385362D01*
X15892996Y-16399898D01*
X15892990Y-16399903D01*
X15799903Y-16492990D01*
X15799898Y-16492996D01*
X15785362Y-16518173D01*
X15734793Y-16566387D01*
X15666185Y-16579607D01*
X15601322Y-16553637D01*
X15590296Y-16543850D01*
X15084728Y-16038282D01*
X15084727Y-16038282D01*
X15045380Y-16092438D01*
X14948903Y-16281784D01*
X14883242Y-16483865D01*
X14881798Y-16492990D01*
X14850000Y-16693753D01*
X14500500Y-16693753D01*
X14500500Y-15142329D01*
X14505523Y-15107393D01*
X14509927Y-15092395D01*
X14547672Y-15033644D01*
X14549041Y-15032457D01*
X14603920Y-15004977D01*
X14611479Y-15003333D01*
X14637832Y-15000500D01*
X53857670Y-15000500D01*
X53892606Y-15005523D01*
G37*
%TD.AperFunction*%
%TD*%
M02*
